<svg width="380" height="359" viewBox="0 0 390 359" fill="none" xmlns="http://www.w3.org/2000/svg">
    <rect width="390" height="358.985" fill="#174584"/>
    <path d="M73.242 52.0775L73.2105 54.3455C73.2525 56.8235 72.6015 58.7555 71.2575 60.1415C69.9135 61.5275 68.0025 62.2205 65.5245 62.2205C63.1515 62.2205 61.3245 61.559 60.0435 60.236C58.7835 58.913 58.1745 57.044 58.2165 54.629L58.248 51.8885L58.2165 41.8085H60.705L60.6105 54.314C60.5895 56.204 61.0095 57.632 61.8705 58.598C62.7315 59.543 64.0125 60.0155 65.7135 60.0155C67.4145 60.0155 68.706 59.564 69.588 58.661C70.47 57.758 70.9005 56.414 70.8795 54.629L70.7535 41.8085H73.2735L73.242 52.0775ZM83.0693 46.1555C84.3503 46.1555 85.6313 46.4075 86.9123 46.9115L86.5028 49.2425L86.1248 49.337C85.5368 48.875 84.9803 48.539 84.4553 48.329C83.9303 48.098 83.3843 47.9825 82.8173 47.9825C81.9143 47.9825 81.2003 48.224 80.6753 48.707C80.1503 49.169 79.8878 49.7045 79.8878 50.3135C79.8878 50.9225 80.1398 51.416 80.6438 51.794C81.1688 52.172 81.9668 52.592 83.0378 53.054C83.9828 53.474 84.7283 53.852 85.2743 54.188C85.8413 54.524 86.3243 54.9755 86.7233 55.5425C87.1433 56.0885 87.3533 56.7605 87.3533 57.5585C87.3533 58.3775 87.1328 59.144 86.6918 59.858C86.2508 60.551 85.5998 61.118 84.7388 61.559C83.8988 61.979 82.8908 62.189 81.7148 62.189C80.9798 62.189 80.2028 62.105 79.3838 61.937C78.5858 61.748 77.8403 61.475 77.1473 61.118L77.4308 58.6295L77.7458 58.5035C78.3338 59.0915 79.0163 59.5535 79.7933 59.8895C80.5913 60.2045 81.3263 60.362 81.9983 60.362C82.8803 60.362 83.6048 60.131 84.1718 59.669C84.7388 59.186 85.0223 58.6085 85.0223 57.9365C85.0223 57.3065 84.7598 56.8025 84.2348 56.4245C83.7308 56.0465 82.9328 55.6055 81.8408 55.1015C80.9378 54.7025 80.1923 54.335 79.6043 53.999C79.0373 53.663 78.5543 53.222 78.1553 52.676C77.7563 52.109 77.5568 51.4265 77.5568 50.6285C77.5568 49.7885 77.7773 49.0325 78.2183 48.3605C78.6803 47.6885 79.3208 47.153 80.1398 46.754C80.9798 46.355 81.9563 46.1555 83.0693 46.1555ZM101.396 59.984L101.585 60.173L101.365 62H91.8201L91.9146 57.275L91.8201 46.313H101.428L101.585 46.502L101.396 48.329L97.4271 48.203L94.1511 48.2345L94.1196 52.991L97.2381 53.0225L99.9786 52.928L100.136 53.1485L99.9471 55.007L97.0491 54.9125L94.1196 54.944L94.0881 57.086L94.1196 60.0785L97.2066 60.11L101.396 59.984ZM116.882 46.124C119.171 46.124 120.924 46.796 122.142 48.14C123.381 49.484 124.001 51.3845 124.001 53.8415C124.001 56.5085 123.339 58.577 122.016 60.047C120.714 61.496 118.845 62.2205 116.409 62.2205C114.141 62.2205 112.388 61.538 111.149 60.173C109.91 58.787 109.29 56.8235 109.29 54.2825C109.29 51.6785 109.952 49.673 111.275 48.266C112.598 46.838 114.467 46.124 116.882 46.124ZM116.661 48.1085C115.002 48.1085 113.763 48.581 112.944 49.526C112.146 50.471 111.747 51.962 111.747 53.999C111.747 56.183 112.146 57.7685 112.944 58.7555C113.742 59.7425 114.96 60.236 116.598 60.236C118.278 60.236 119.528 59.753 120.347 58.787C121.166 57.821 121.575 56.309 121.575 54.251C121.575 52.13 121.166 50.576 120.347 49.589C119.549 48.602 118.32 48.1085 116.661 48.1085ZM140.306 54.2825V56.5505C140.327 58.3355 139.781 59.7215 138.668 60.7085C137.576 61.6955 136.001 62.189 133.943 62.189C131.906 62.189 130.352 61.706 129.281 60.74C128.21 59.753 127.696 58.3565 127.738 56.5505L127.769 54.1565L127.738 46.313H130.1L129.974 56.1725C129.953 57.4955 130.279 58.493 130.951 59.165C131.644 59.837 132.673 60.173 134.038 60.173C135.382 60.173 136.4 59.837 137.093 59.165C137.786 58.493 138.122 57.4955 138.101 56.1725L138.007 46.313H140.401L140.306 54.2825ZM152.744 55.6685C154.025 57.6215 155.442 59.543 156.996 61.433L156.965 61.748C156.083 62.021 155.358 62.1785 154.791 62.2205L154.382 61.9685C152.786 59.5535 151.578 57.653 150.759 56.267L147.798 56.2985V57.086L147.861 62H145.53L145.625 57.275L145.53 46.313L150.885 46.2815C152.544 46.2815 153.815 46.67 154.697 47.447C155.6 48.224 156.051 49.3475 156.051 50.8175C156.051 51.8885 155.757 52.844 155.169 53.684C154.602 54.524 153.794 55.1855 152.744 55.6685ZM147.83 54.3455L150.791 54.44C152.66 53.915 153.594 52.7705 153.594 51.0065C153.594 50.0825 153.321 49.3895 152.775 48.9275C152.229 48.4655 151.4 48.2135 150.287 48.1715L147.861 48.203L147.83 54.3455ZM172.467 46.1555C174.21 46.1555 175.722 46.523 177.003 47.258L176.562 49.4315L176.278 49.526C175.753 49.085 175.144 48.7385 174.451 48.4865C173.758 48.2345 173.013 48.1085 172.215 48.1085C170.661 48.1085 169.474 48.6125 168.655 49.6205C167.836 50.6075 167.427 52.088 167.427 54.062C167.427 56.057 167.836 57.5795 168.655 58.6295C169.474 59.6795 170.661 60.2045 172.215 60.2045C172.971 60.2045 173.727 60.0785 174.483 59.8265C175.26 59.5535 175.953 59.1965 176.562 58.7555L176.845 58.85L176.625 61.0235C175.197 61.8005 173.695 62.189 172.12 62.189C169.81 62.189 168.036 61.5065 166.797 60.1415C165.558 58.7555 164.938 56.792 164.938 54.251C164.938 51.668 165.589 49.673 166.891 48.266C168.214 46.859 170.073 46.1555 172.467 46.1555ZM192.94 54.2825V56.5505C192.961 58.3355 192.415 59.7215 191.302 60.7085C190.21 61.6955 188.635 62.189 186.577 62.189C184.54 62.189 182.986 61.706 181.915 60.74C180.844 59.753 180.329 58.3565 180.371 56.5505L180.403 54.1565L180.371 46.313H182.734L182.608 56.1725C182.587 57.4955 182.912 58.493 183.584 59.165C184.277 59.837 185.306 60.173 186.671 60.173C188.015 60.173 189.034 59.837 189.727 59.165C190.42 58.493 190.756 57.4955 190.735 56.1725L190.64 46.313H193.034L192.94 54.2825ZM202.794 46.1555C204.075 46.1555 205.356 46.4075 206.637 46.9115L206.227 49.2425L205.849 49.337C205.261 48.875 204.705 48.539 204.18 48.329C203.655 48.098 203.109 47.9825 202.542 47.9825C201.639 47.9825 200.925 48.224 200.4 48.707C199.875 49.169 199.612 49.7045 199.612 50.3135C199.612 50.9225 199.864 51.416 200.368 51.794C200.893 52.172 201.691 52.592 202.762 53.054C203.707 53.474 204.453 53.852 204.999 54.188C205.566 54.524 206.049 54.9755 206.448 55.5425C206.868 56.0885 207.078 56.7605 207.078 57.5585C207.078 58.3775 206.857 59.144 206.416 59.858C205.975 60.551 205.324 61.118 204.463 61.559C203.623 61.979 202.615 62.189 201.439 62.189C200.704 62.189 199.927 62.105 199.108 61.937C198.31 61.748 197.565 61.475 196.872 61.118L197.155 58.6295L197.47 58.5035C198.058 59.0915 198.741 59.5535 199.518 59.8895C200.316 60.2045 201.051 60.362 201.723 60.362C202.605 60.362 203.329 60.131 203.896 59.669C204.463 59.186 204.747 58.6085 204.747 57.9365C204.747 57.3065 204.484 56.8025 203.959 56.4245C203.455 56.0465 202.657 55.6055 201.565 55.1015C200.662 54.7025 199.917 54.335 199.329 53.999C198.762 53.663 198.279 53.222 197.88 52.676C197.481 52.109 197.281 51.4265 197.281 50.6285C197.281 49.7885 197.502 49.0325 197.943 48.3605C198.405 47.6885 199.045 47.153 199.864 46.754C200.704 46.355 201.681 46.1555 202.794 46.1555ZM220.975 46.502L220.818 48.4865L217.888 48.266H216.313L216.219 57.086L216.313 62H213.951L214.045 57.275L213.982 48.266H212.407L209.415 48.4865L209.226 48.266L209.415 46.313H220.849L220.975 46.502ZM229.716 46.124C232.005 46.124 233.758 46.796 234.976 48.14C236.215 49.484 236.835 51.3845 236.835 53.8415C236.835 56.5085 236.173 58.577 234.85 60.047C233.548 61.496 231.679 62.2205 229.243 62.2205C226.975 62.2205 225.222 61.538 223.983 60.173C222.744 58.787 222.124 56.8235 222.124 54.2825C222.124 51.6785 222.786 49.673 224.109 48.266C225.432 46.838 227.301 46.124 229.716 46.124ZM229.495 48.1085C227.836 48.1085 226.597 48.581 225.778 49.526C224.98 50.471 224.581 51.962 224.581 53.999C224.581 56.183 224.98 57.7685 225.778 58.7555C226.576 59.7425 227.794 60.236 229.432 60.236C231.112 60.236 232.362 59.753 233.181 58.787C234 57.821 234.409 56.309 234.409 54.251C234.409 52.13 234 50.576 233.181 49.589C232.383 48.602 231.154 48.1085 229.495 48.1085ZM257.771 62H255.66L255.314 57.212L254.463 49.967H254.274L249.77 60.236H247.911L243.659 49.967H243.47L242.651 57.023L242.21 62H240.194L241.926 46.313H244.667L245.454 48.6755L248.888 57.1175H249.077L252.668 48.5495L253.487 46.313H256.164L257.771 62ZM284.472 62H282.362L282.015 57.212L281.165 49.967H280.976L276.471 60.236H274.613L270.36 49.967H270.171L269.352 57.023L268.911 62H266.895L268.628 46.313H271.368L272.156 48.6755L275.589 57.1175H275.778L279.369 48.5495L280.188 46.313H282.866L284.472 62ZM301.502 62H299.139L298.761 60.299L297.942 57.968L294.194 57.9365L290.855 57.968L290.004 60.173L289.563 62H287.232L293.28 46.313H295.989L301.502 62ZM297.281 56.0465L294.666 48.6125H294.477L291.611 56.0465L294.383 56.078L297.281 56.0465ZM311.541 46.187C313.935 46.187 315.762 46.8275 317.022 48.1085C318.303 49.3895 318.944 51.227 318.944 53.621C318.944 56.372 318.251 58.4825 316.865 59.9525C315.479 61.4225 313.494 62.1575 310.911 62.1575C310.176 62.1575 309.294 62.1365 308.265 62.0945C307.257 62.0735 306.302 62.042 305.399 62L305.493 57.275L305.399 46.313L311.541 46.187ZM311.289 60.236C312.969 60.236 314.261 59.732 315.164 58.724C316.088 57.695 316.55 56.1515 316.55 54.0935C316.55 52.0775 316.119 50.5865 315.258 49.6205C314.397 48.6545 313.095 48.1715 311.352 48.1715C310.323 48.1715 309.116 48.2135 307.73 48.2975L307.667 57.086L307.698 60.047C308.307 60.089 308.948 60.131 309.62 60.173C310.292 60.215 310.848 60.236 311.289 60.236ZM332.817 59.984L333.006 60.173L332.785 62H323.241L323.335 57.275L323.241 46.313H332.848L333.006 46.502L332.817 48.329L328.848 48.203L325.572 48.2345L325.54 52.991L328.659 53.0225L331.399 52.928L331.557 53.1485L331.368 55.007L328.47 54.9125L325.54 54.944L325.509 57.086L325.54 60.0785L328.627 60.11L332.817 59.984ZM48.2624 84.1555C49.5434 84.1555 50.8244 84.4075 52.1054 84.9115L51.6959 87.2425L51.3179 87.337C50.7299 86.875 50.1734 86.539 49.6484 86.329C49.1234 86.098 48.5774 85.9825 48.0104 85.9825C47.1074 85.9825 46.3934 86.224 45.8684 86.707C45.3434 87.169 45.0809 87.7045 45.0809 88.3135C45.0809 88.9225 45.3329 89.416 45.8369 89.794C46.3619 90.172 47.1599 90.592 48.2309 91.054C49.1759 91.474 49.9214 91.852 50.4674 92.188C51.0344 92.524 51.5174 92.9755 51.9164 93.5425C52.3364 94.0885 52.5464 94.7605 52.5464 95.5585C52.5464 96.3775 52.3259 97.144 51.8849 97.858C51.4439 98.551 50.7929 99.118 49.9319 99.559C49.0919 99.979 48.0839 100.189 46.9079 100.189C46.1729 100.189 45.3959 100.105 44.5769 99.937C43.7789 99.748 43.0334 99.475 42.3404 99.118L42.6239 96.6295L42.9389 96.5035C43.5269 97.0915 44.2094 97.5535 44.9864 97.8895C45.7844 98.2045 46.5194 98.362 47.1914 98.362C48.0734 98.362 48.7979 98.131 49.3649 97.669C49.9319 97.186 50.2154 96.6085 50.2154 95.9365C50.2154 95.3065 49.9529 94.8025 49.4279 94.4245C48.9239 94.0465 48.1259 93.6055 47.0339 93.1015C46.1309 92.7025 45.3854 92.335 44.7974 91.999C44.2304 91.663 43.7474 91.222 43.3484 90.676C42.9494 90.109 42.7499 89.4265 42.7499 88.6285C42.7499 87.7885 42.9704 87.0325 43.4114 86.3605C43.8734 85.6885 44.5139 85.153 45.3329 84.754C46.1729 84.355 47.1494 84.1555 48.2624 84.1555ZM63.1872 84.124C65.4762 84.124 67.2297 84.796 68.4477 86.14C69.6867 87.484 70.3062 89.3845 70.3062 91.8415C70.3062 94.5085 69.6447 96.577 68.3217 98.047C67.0197 99.496 65.1507 100.221 62.7147 100.221C60.4467 100.221 58.6932 99.538 57.4542 98.173C56.2152 96.787 55.5957 94.8235 55.5957 92.2825C55.5957 89.6785 56.2572 87.673 57.5802 86.266C58.9032 84.838 60.7722 84.124 63.1872 84.124ZM62.9667 86.1085C61.3077 86.1085 60.0687 86.581 59.2497 87.526C58.4517 88.471 58.0527 89.962 58.0527 91.999C58.0527 94.183 58.4517 95.7685 59.2497 96.7555C60.0477 97.7425 61.2657 98.236 62.9037 98.236C64.5837 98.236 65.8332 97.753 66.6522 96.787C67.4712 95.821 67.8807 94.309 67.8807 92.251C67.8807 90.13 67.4712 88.576 66.6522 87.589C65.8542 86.602 64.6257 86.1085 62.9667 86.1085ZM80.6584 84.1555C82.4014 84.1555 83.9134 84.523 85.1944 85.258L84.7534 87.4315L84.4699 87.526C83.9449 87.085 83.3359 86.7385 82.6429 86.4865C81.9499 86.2345 81.2044 86.1085 80.4064 86.1085C78.8524 86.1085 77.6659 86.6125 76.8469 87.6205C76.0279 88.6075 75.6184 90.088 75.6184 92.062C75.6184 94.057 76.0279 95.5795 76.8469 96.6295C77.6659 97.6795 78.8524 98.2045 80.4064 98.2045C81.1624 98.2045 81.9184 98.0785 82.6744 97.8265C83.4514 97.5535 84.1444 97.1965 84.7534 96.7555L85.0369 96.85L84.8164 99.0235C83.3884 99.8005 81.8869 100.189 80.3119 100.189C78.0019 100.189 76.2274 99.5065 74.9884 98.1415C73.7494 96.7555 73.1299 94.792 73.1299 92.251C73.1299 89.668 73.7809 87.673 75.0829 86.266C76.4059 84.859 78.2644 84.1555 80.6584 84.1555ZM91.3349 95.086L91.3979 100H89.0669L89.1614 95.275L89.0669 84.313H91.4294L91.3349 95.086ZM109.441 100H107.078L106.7 98.299L105.881 95.968L102.133 95.9365L98.7938 95.968L97.9433 98.173L97.5023 100H95.1713L101.219 84.313H103.928L109.441 100ZM105.22 94.0465L102.605 86.6125H102.416L99.5498 94.0465L102.322 94.078L105.22 94.0465ZM121.78 98.236L121.622 100H113.275L113.369 95.275L113.275 84.313H115.637L115.543 95.086L115.606 98.0155H121.654L121.78 98.236ZM147.106 100H144.995L144.649 95.212L143.798 87.967H143.609L139.105 98.236H137.246L132.994 87.967H132.805L131.986 95.023L131.545 100H129.529L131.261 84.313H134.002L134.789 86.6755L138.223 95.1175H138.412L142.003 86.5495L142.822 84.313H145.499L147.106 100ZM161.489 97.984L161.678 98.173L161.458 100H151.913L152.008 95.275L151.913 84.313H161.521L161.678 84.502L161.489 86.329L157.52 86.203L154.244 86.2345L154.213 90.991L157.331 91.0225L160.072 90.928L160.229 91.1485L160.04 93.007L157.142 92.9125L154.213 92.944L154.181 95.086L154.213 98.0785L157.3 98.11L161.489 97.984ZM171.745 84.187C174.139 84.187 175.966 84.8275 177.226 86.1085C178.507 87.3895 179.147 89.227 179.147 91.621C179.147 94.372 178.454 96.4825 177.068 97.9525C175.682 99.4225 173.698 100.158 171.115 100.158C170.38 100.158 169.498 100.137 168.469 100.095C167.461 100.074 166.505 100.042 165.602 100L165.697 95.275L165.602 84.313L171.745 84.187ZM171.493 98.236C173.173 98.236 174.464 97.732 175.367 96.724C176.291 95.695 176.753 94.1515 176.753 92.0935C176.753 90.0775 176.323 88.5865 175.462 87.6205C174.601 86.6545 173.299 86.1715 171.556 86.1715C170.527 86.1715 169.319 86.2135 167.933 86.2975L167.87 95.086L167.902 98.047C168.511 98.089 169.151 98.131 169.823 98.173C170.495 98.215 171.052 98.236 171.493 98.236ZM185.712 95.086L185.775 100H183.444L183.538 95.275L183.444 84.313H185.806L185.712 95.086ZM203.818 100H201.455L201.077 98.299L200.258 95.968L196.51 95.9365L193.171 95.968L192.32 98.173L191.879 100H189.548L195.596 84.313H198.305L203.818 100ZM199.597 94.0465L196.982 86.6125H196.793L193.927 94.0465L196.699 94.078L199.597 94.0465ZM229.609 100H227.498L227.152 95.212L226.301 87.967H226.112L221.608 98.236H219.749L215.497 87.967H215.308L214.489 95.023L214.048 100H212.032L213.764 84.313H216.505L217.292 86.6755L220.726 95.1175H220.915L224.506 86.5495L225.325 84.313H228.002L229.609 100ZM246.638 100H244.276L243.898 98.299L243.079 95.968L239.33 95.9365L235.991 95.968L235.141 98.173L234.7 100H232.369L238.417 84.313H241.126L246.638 100ZM242.417 94.0465L239.803 86.6125H239.614L236.747 94.0465L239.519 94.078L242.417 94.0465ZM257.749 93.6685C259.03 95.6215 260.447 97.543 262.001 99.433L261.97 99.748C261.088 100.021 260.363 100.179 259.796 100.221L259.387 99.9685C257.791 97.5535 256.583 95.653 255.764 94.267L252.803 94.2985V95.086L252.866 100H250.535L250.63 95.275L250.535 84.313L255.89 84.2815C257.549 84.2815 258.82 84.67 259.702 85.447C260.605 86.224 261.056 87.3475 261.056 88.8175C261.056 89.8885 260.762 90.844 260.174 91.684C259.607 92.524 258.799 93.1855 257.749 93.6685ZM252.835 92.3455L255.796 92.44C257.665 91.915 258.599 90.7705 258.599 89.0065C258.599 88.0825 258.326 87.3895 257.78 86.9275C257.234 86.4655 256.405 86.2135 255.292 86.1715L252.866 86.203L252.835 92.3455ZM271.265 91.6525C273.491 94.3825 275.854 96.9865 278.353 99.4645L278.29 99.811C277.639 100.021 276.883 100.179 276.022 100.284L275.644 100.126C272.956 97.102 270.635 94.33 268.682 91.81V91.621L274.1 85.699L275.14 84.313L277.943 84.2815L271.265 91.6525ZM268.43 95.086L268.493 100H266.162L266.257 95.275L266.162 84.313H268.525L268.43 95.086ZM291.181 97.984L291.37 98.173L291.149 100H281.605L281.699 95.275L281.605 84.313H291.212L291.37 84.502L291.181 86.329L287.212 86.203L283.936 86.2345L283.904 90.991L287.023 91.0225L289.763 90.928L289.921 91.1485L289.732 93.007L286.834 92.9125L283.904 92.944L283.873 95.086L283.904 98.0785L286.991 98.11L291.181 97.984ZM305.216 84.502L305.058 86.4865L302.129 86.266H300.554L300.459 95.086L300.554 100H298.191L298.286 95.275L298.223 86.266H296.648L293.655 86.4865L293.466 86.266L293.655 84.313H305.09L305.216 84.502ZM311.312 95.086L311.375 100H309.044L309.138 95.275L309.044 84.313H311.406L311.312 95.086ZM330.205 95.3065L330.237 100H327.717L319.464 88.03H319.306L319.275 94.771L319.338 100H317.196L317.29 95.3695L317.227 84.313H319.716L327.969 96.283H328.189L328.126 84.4075L330.3 84.25L330.205 95.3065ZM342.242 84.1555C343.88 84.1555 345.528 84.5125 347.187 85.2265L346.4 87.4945H346.116C345.339 86.9905 344.625 86.644 343.974 86.455C343.323 86.245 342.62 86.14 341.864 86.14C340.079 86.14 338.735 86.644 337.832 87.652C336.95 88.66 336.509 90.235 336.509 92.377C336.509 94.435 336.918 95.926 337.737 96.85C338.556 97.753 339.858 98.2045 341.643 98.2045C342.168 98.2045 342.672 98.1625 343.155 98.0785C343.638 97.9735 344.226 97.795 344.919 97.543V95.968L344.888 93.7315L347.061 93.574V99.244C344.94 99.874 343.103 100.189 341.549 100.189C339.071 100.189 337.191 99.5275 335.91 98.2045C334.65 96.8605 334.02 94.9495 334.02 92.4715C334.02 89.7835 334.734 87.7255 336.162 86.2975C337.611 84.8695 339.638 84.1555 342.242 84.1555ZM51.0002 122.155C52.2812 122.155 53.5622 122.407 54.8432 122.911L54.4337 125.242L54.0557 125.337C53.4677 124.875 52.9112 124.539 52.3862 124.329C51.8612 124.098 51.3152 123.982 50.7482 123.982C49.8452 123.982 49.1312 124.224 48.6062 124.707C48.0812 125.169 47.8187 125.704 47.8187 126.313C47.8187 126.922 48.0707 127.416 48.5747 127.794C49.0997 128.172 49.8977 128.592 50.9687 129.054C51.9137 129.474 52.6592 129.852 53.2052 130.188C53.7722 130.524 54.2552 130.975 54.6542 131.542C55.0742 132.088 55.2842 132.76 55.2842 133.558C55.2842 134.377 55.0637 135.144 54.6227 135.858C54.1817 136.551 53.5307 137.118 52.6697 137.559C51.8297 137.979 50.8217 138.189 49.6457 138.189C48.9107 138.189 48.1337 138.105 47.3147 137.937C46.5167 137.748 45.7712 137.475 45.0782 137.118L45.3617 134.629L45.6767 134.503C46.2647 135.091 46.9472 135.553 47.7242 135.889C48.5222 136.204 49.2572 136.362 49.9292 136.362C50.8112 136.362 51.5357 136.131 52.1027 135.669C52.6697 135.186 52.9532 134.608 52.9532 133.936C52.9532 133.306 52.6907 132.802 52.1657 132.424C51.6617 132.046 50.8637 131.605 49.7717 131.101C48.8687 130.702 48.1232 130.335 47.5352 129.999C46.9682 129.663 46.4852 129.222 46.0862 128.676C45.6872 128.109 45.4877 127.426 45.4877 126.628C45.4877 125.788 45.7082 125.032 46.1492 124.36C46.6112 123.688 47.2517 123.153 48.0707 122.754C48.9107 122.355 49.8872 122.155 51.0002 122.155ZM69.327 135.984L69.516 136.173L69.2955 138H59.751L59.8455 133.275L59.751 122.313H69.3585L69.516 122.502L69.327 124.329L65.358 124.203L62.082 124.234L62.0505 128.991L65.169 129.022L67.9095 128.928L68.067 129.148L67.878 131.007L64.98 130.912L62.0505 130.944L62.019 133.086L62.0505 136.078L65.1375 136.11L69.327 135.984ZM80.6535 131.668C81.9345 133.621 83.352 135.543 84.906 137.433L84.8745 137.748C83.9925 138.021 83.268 138.179 82.701 138.221L82.2915 137.968C80.6955 135.553 79.488 133.653 78.669 132.267L75.708 132.298V133.086L75.771 138H73.44L73.5345 133.275L73.44 122.313L78.795 122.281C80.454 122.281 81.7245 122.67 82.6065 123.447C83.5095 124.224 83.961 125.347 83.961 126.817C83.961 127.888 83.667 128.844 83.079 129.684C82.512 130.524 81.7035 131.185 80.6535 131.668ZM75.7395 130.345L78.7005 130.44C80.5695 129.915 81.504 128.77 81.504 127.006C81.504 126.082 81.231 125.389 80.685 124.927C80.139 124.465 79.3095 124.213 78.1965 124.171L75.771 124.203L75.7395 130.345ZM94.6287 138H91.8252L86.3442 122.313H88.7697L89.1477 124.045L93.2112 135.669H93.3687L97.8732 124.14L98.2512 122.313H100.614L94.6287 138ZM106.347 133.086L106.41 138H104.079L104.173 133.275L104.079 122.313H106.441L106.347 133.086ZM117.819 122.155C119.562 122.155 121.074 122.523 122.355 123.258L121.914 125.431L121.63 125.526C121.105 125.085 120.496 124.738 119.803 124.486C119.11 124.234 118.365 124.108 117.567 124.108C116.013 124.108 114.826 124.612 114.007 125.62C113.188 126.607 112.779 128.088 112.779 130.062C112.779 132.057 113.188 133.579 114.007 134.629C114.826 135.679 116.013 136.204 117.567 136.204C118.323 136.204 119.079 136.078 119.835 135.826C120.612 135.553 121.305 135.196 121.914 134.755L122.197 134.85L121.977 137.023C120.549 137.8 119.047 138.189 117.472 138.189C115.162 138.189 113.388 137.506 112.149 136.141C110.91 134.755 110.29 132.792 110.29 130.251C110.29 127.668 110.941 125.673 112.243 124.266C113.566 122.859 115.425 122.155 117.819 122.155ZM135.803 135.984L135.992 136.173L135.772 138H126.227L126.322 133.275L126.227 122.313H135.835L135.992 122.502L135.803 124.329L131.834 124.203L128.558 124.234L128.527 128.991L131.645 129.022L134.386 128.928L134.543 129.148L134.354 131.007L131.456 130.912L128.527 130.944L128.495 133.086L128.527 136.078L131.614 136.11L135.803 135.984ZM144.547 122.155C145.828 122.155 147.109 122.407 148.39 122.911L147.98 125.242L147.602 125.337C147.014 124.875 146.458 124.539 145.933 124.329C145.408 124.098 144.862 123.982 144.295 123.982C143.392 123.982 142.678 124.224 142.153 124.707C141.628 125.169 141.365 125.704 141.365 126.313C141.365 126.922 141.617 127.416 142.121 127.794C142.646 128.172 143.444 128.592 144.515 129.054C145.46 129.474 146.206 129.852 146.752 130.188C147.319 130.524 147.802 130.975 148.201 131.542C148.621 132.088 148.831 132.76 148.831 133.558C148.831 134.377 148.61 135.144 148.169 135.858C147.728 136.551 147.077 137.118 146.216 137.559C145.376 137.979 144.368 138.189 143.192 138.189C142.457 138.189 141.68 138.105 140.861 137.937C140.063 137.748 139.318 137.475 138.625 137.118L138.908 134.629L139.223 134.503C139.811 135.091 140.494 135.553 141.271 135.889C142.069 136.204 142.804 136.362 143.476 136.362C144.358 136.362 145.082 136.131 145.649 135.669C146.216 135.186 146.5 134.608 146.5 133.936C146.5 133.306 146.237 132.802 145.712 132.424C145.208 132.046 144.41 131.605 143.318 131.101C142.415 130.702 141.67 130.335 141.082 129.999C140.515 129.663 140.032 129.222 139.633 128.676C139.234 128.109 139.034 127.426 139.034 126.628C139.034 125.788 139.255 125.032 139.696 124.36C140.158 123.688 140.798 123.153 141.617 122.754C142.457 122.355 143.434 122.155 144.547 122.155ZM168.419 122.502L168.261 124.486L165.332 124.266H163.757L163.662 133.086L163.757 138H161.394L161.489 133.275L161.426 124.266H159.851L156.858 124.486L156.669 124.266L156.858 122.313H168.293L168.419 122.502ZM177.159 122.124C179.448 122.124 181.202 122.796 182.42 124.14C183.659 125.484 184.278 127.384 184.278 129.841C184.278 132.508 183.617 134.577 182.294 136.047C180.992 137.496 179.123 138.221 176.687 138.221C174.419 138.221 172.665 137.538 171.426 136.173C170.187 134.787 169.568 132.823 169.568 130.282C169.568 127.678 170.229 125.673 171.552 124.266C172.875 122.838 174.744 122.124 177.159 122.124ZM176.939 124.108C175.28 124.108 174.041 124.581 173.222 125.526C172.424 126.471 172.025 127.962 172.025 129.999C172.025 132.183 172.424 133.768 173.222 134.755C174.02 135.742 175.238 136.236 176.876 136.236C178.556 136.236 179.805 135.753 180.624 134.787C181.443 133.821 181.853 132.309 181.853 130.251C181.853 128.13 181.443 126.576 180.624 125.589C179.826 124.602 178.598 124.108 176.939 124.108ZM210.413 141.245C210.035 141.917 209.678 142.4 209.342 142.694L209.153 142.757C205.898 141.896 202.916 140.373 200.207 138.189C200.039 138.21 199.777 138.221 199.42 138.221C197.152 138.221 195.398 137.538 194.159 136.173C192.92 134.787 192.301 132.823 192.301 130.282C192.301 127.678 192.962 125.673 194.285 124.266C195.608 122.838 197.477 122.124 199.892 122.124C202.181 122.124 203.935 122.796 205.153 124.14C206.392 125.484 207.011 127.384 207.011 129.841C207.011 131.92 206.612 133.642 205.814 135.007C205.016 136.351 203.861 137.275 202.349 137.779C204.848 139.376 207.505 140.447 210.319 140.993L210.413 141.245ZM194.758 129.999C194.758 132.183 195.157 133.768 195.955 134.755C196.753 135.742 197.971 136.236 199.609 136.236C201.289 136.236 202.538 135.753 203.357 134.787C204.176 133.821 204.586 132.309 204.586 130.251C204.586 128.13 204.176 126.576 203.357 125.589C202.559 124.602 201.331 124.108 199.672 124.108C198.013 124.108 196.774 124.581 195.955 125.526C195.157 126.471 194.758 127.962 194.758 129.999ZM223.409 130.282V132.55C223.43 134.335 222.884 135.721 221.771 136.708C220.679 137.695 219.104 138.189 217.046 138.189C215.009 138.189 213.455 137.706 212.384 136.74C211.313 135.753 210.799 134.356 210.841 132.55L210.872 130.156L210.841 122.313H213.203L213.077 132.172C213.056 133.495 213.382 134.493 214.054 135.165C214.747 135.837 215.776 136.173 217.141 136.173C218.485 136.173 219.503 135.837 220.196 135.165C220.889 134.493 221.225 133.495 221.204 132.172L221.11 122.313H223.504L223.409 130.282ZM230.901 133.086L230.964 138H228.633L228.727 133.275L228.633 122.313H230.995L230.901 133.086ZM242.373 122.155C244.116 122.155 245.628 122.523 246.909 123.258L246.468 125.431L246.184 125.526C245.659 125.085 245.05 124.738 244.357 124.486C243.664 124.234 242.919 124.108 242.121 124.108C240.567 124.108 239.38 124.612 238.561 125.62C237.742 126.607 237.333 128.088 237.333 130.062C237.333 132.057 237.742 133.579 238.561 134.629C239.38 135.679 240.567 136.204 242.121 136.204C242.877 136.204 243.633 136.078 244.389 135.826C245.166 135.553 245.859 135.196 246.468 134.755L246.751 134.85L246.531 137.023C245.103 137.8 243.601 138.189 242.026 138.189C239.716 138.189 237.942 137.506 236.703 136.141C235.464 134.755 234.844 132.792 234.844 130.251C234.844 127.668 235.495 125.673 236.797 124.266C238.12 122.859 239.979 122.155 242.373 122.155ZM255.884 129.652C258.11 132.382 260.473 134.986 262.972 137.464L262.909 137.811C262.258 138.021 261.502 138.179 260.641 138.284L260.263 138.126C257.575 135.102 255.254 132.33 253.301 129.81V129.621L258.719 123.699L259.759 122.313L262.562 122.281L255.884 129.652ZM253.049 133.086L253.112 138H250.781L250.876 133.275L250.781 122.313H253.144L253.049 133.086ZM274.666 136.236L274.508 138H266.161L266.255 133.275L266.161 122.313H268.523L268.429 133.086L268.492 136.015H274.54L274.666 136.236ZM281.917 133.495L282.011 138H279.649L279.775 133.495L279.743 132.519L274.42 122.313H277.003L277.318 123.226L280.846 129.967H281.003L284.846 123.321L285.256 122.313H287.776L281.948 132.519L281.917 133.495ZM308.777 138H306.414L306.036 136.299L305.217 133.968L301.469 133.936L298.13 133.968L297.279 136.173L296.838 138H294.507L300.555 122.313H303.264L308.777 138ZM304.556 132.046L301.941 124.612H301.752L298.886 132.046L301.658 132.078L304.556 132.046ZM325.683 133.306L325.715 138H323.195L314.942 126.03H314.784L314.753 132.771L314.816 138H312.674L312.768 133.37L312.705 122.313H315.194L323.447 134.283H323.667L323.604 122.407L325.778 122.25L325.683 133.306ZM337.581 122.187C339.975 122.187 341.802 122.827 343.062 124.108C344.343 125.389 344.984 127.227 344.984 129.621C344.984 132.372 344.291 134.482 342.905 135.952C341.519 137.422 339.534 138.158 336.951 138.158C336.216 138.158 335.334 138.137 334.305 138.095C333.297 138.074 332.342 138.042 331.439 138L331.533 133.275L331.439 122.313L337.581 122.187ZM337.329 136.236C339.009 136.236 340.301 135.732 341.204 134.724C342.128 133.695 342.59 132.151 342.59 130.093C342.59 128.077 342.159 126.586 341.298 125.62C340.437 124.654 339.135 124.171 337.392 124.171C336.363 124.171 335.156 124.213 333.77 124.297L333.707 133.086L333.738 136.047C334.347 136.089 334.988 136.131 335.66 136.173C336.332 136.215 336.888 136.236 337.329 136.236Z" fill="white"/>
    <path d="M71.0343 173.979L71.2233 174.168L71.0028 175.995H61.4583L61.5528 171.27L61.4583 160.308H71.0658L71.2233 160.497L71.0343 162.324L67.0653 162.198L63.7893 162.229L63.7578 166.986L66.8763 167.017L69.6168 166.923L69.7743 167.143L69.5853 169.002L66.6873 168.907L63.7578 168.939L63.7263 171.081L63.7578 174.073L66.8448 174.105L71.0343 173.979ZM77.3208 162.229L77.2893 167.395L79.9983 167.427L82.7703 167.332L82.9278 167.553L82.7703 169.348L79.7778 169.317L77.2578 169.348V171.081L77.3208 175.995H74.9898L75.0528 171.27L74.9898 160.308H84.1248L84.2508 160.497L84.0618 162.324L80.1873 162.198L77.3208 162.229ZM89.5024 162.229L89.4709 167.395L92.1799 167.427L94.9519 167.332L95.1094 167.553L94.9519 169.348L91.9594 169.317L89.4394 169.348V171.081L89.5024 175.995H87.1714L87.2344 171.27L87.1714 160.308H96.3064L96.4324 160.497L96.2434 162.324L92.3689 162.198L89.5024 162.229ZM101.779 171.081L101.842 175.995H99.5105L99.605 171.27L99.5105 160.308H101.873L101.779 171.081ZM113.25 160.15C114.993 160.15 116.505 160.518 117.786 161.253L117.345 163.426L117.062 163.521C116.537 163.08 115.928 162.733 115.235 162.481C114.542 162.229 113.796 162.103 112.998 162.103C111.444 162.103 110.258 162.607 109.439 163.615C108.62 164.602 108.21 166.083 108.21 168.057C108.21 170.052 108.62 171.574 109.439 172.624C110.258 173.674 111.444 174.199 112.998 174.199C113.754 174.199 114.51 174.073 115.266 173.821C116.043 173.548 116.736 173.191 117.345 172.75L117.629 172.845L117.408 175.018C115.98 175.795 114.479 176.184 112.904 176.184C110.594 176.184 108.819 175.501 107.58 174.136C106.341 172.75 105.722 170.787 105.722 168.246C105.722 165.663 106.373 163.668 107.675 162.261C108.998 160.854 110.856 160.15 113.25 160.15ZM123.927 171.081L123.99 175.995H121.659L121.753 171.27L121.659 160.308H124.021L123.927 171.081ZM139.387 173.979L139.576 174.168L139.355 175.995H129.811L129.905 171.27L129.811 160.308H139.418L139.576 160.497L139.387 162.324L135.418 162.198L132.142 162.229L132.11 166.986L135.229 167.017L137.969 166.923L138.127 167.143L137.938 169.002L135.04 168.907L132.11 168.939L132.079 171.081L132.11 174.073L135.197 174.105L139.387 173.979ZM156.509 171.301L156.541 175.995H154.021L145.768 164.025H145.61L145.579 170.766L145.642 175.995H143.5L143.594 171.364L143.531 160.308H146.02L154.273 172.278H154.493L154.43 160.402L156.604 160.245L156.509 171.301ZM171.756 160.497L171.599 162.481L168.669 162.261H167.094L167 171.081L167.094 175.995H164.732L164.826 171.27L164.763 162.261H163.188L160.196 162.481L160.007 162.261L160.196 160.308H171.63L171.756 160.497ZM184.026 174.231L183.869 175.995H175.521L175.616 171.27L175.521 160.308H177.884L177.789 171.081L177.852 174.01H183.9L184.026 174.231ZM191.277 171.49L191.372 175.995H189.009L189.135 171.49L189.104 170.514L183.78 160.308H186.363L186.678 161.221L190.206 167.962H190.364L194.207 161.316L194.616 160.308H197.136L191.309 170.514L191.277 171.49ZM213.286 167.836C215.617 168.298 216.783 169.537 216.783 171.553C216.783 173.065 216.195 174.199 215.019 174.955C213.843 175.711 212.121 176.089 209.853 176.089C208.488 176.089 207.175 176.058 205.915 175.995L206.01 171.27L205.915 160.308L210.829 160.276C212.404 160.276 213.622 160.612 214.483 161.284C215.365 161.935 215.806 162.87 215.806 164.088C215.806 164.991 215.586 165.757 215.145 166.387C214.704 167.017 214.084 167.5 213.286 167.836ZM213.318 164.371C213.318 163.594 213.066 163.027 212.562 162.67C212.058 162.313 211.249 162.135 210.136 162.135H208.215L208.183 166.986L210.987 167.08C211.764 166.912 212.341 166.618 212.719 166.198C213.118 165.757 213.318 165.148 213.318 164.371ZM210.136 174.294C211.501 174.294 212.541 174.063 213.255 173.601C213.99 173.118 214.357 172.414 214.357 171.49C214.357 170.734 214.105 170.146 213.601 169.726C213.097 169.306 212.331 169.023 211.302 168.876L208.183 168.907L208.152 171.081L208.215 174.199C208.866 174.262 209.506 174.294 210.136 174.294ZM227.255 160.119C229.544 160.119 231.297 160.791 232.515 162.135C233.754 163.479 234.374 165.379 234.374 167.836C234.374 170.503 233.712 172.572 232.389 174.042C231.087 175.491 229.218 176.215 226.782 176.215C224.514 176.215 222.761 175.533 221.522 174.168C220.283 172.782 219.663 170.818 219.663 168.277C219.663 165.673 220.325 163.668 221.648 162.261C222.971 160.833 224.84 160.119 227.255 160.119ZM227.034 162.103C225.375 162.103 224.136 162.576 223.317 163.521C222.519 164.466 222.12 165.957 222.12 167.994C222.12 170.178 222.519 171.763 223.317 172.75C224.115 173.737 225.333 174.231 226.971 174.231C228.651 174.231 229.901 173.748 230.72 172.782C231.539 171.816 231.948 170.304 231.948 168.246C231.948 166.125 231.539 164.571 230.72 163.584C229.922 162.597 228.693 162.103 227.034 162.103ZM244.789 160.119C247.078 160.119 248.832 160.791 250.05 162.135C251.289 163.479 251.908 165.379 251.908 167.836C251.908 170.503 251.247 172.572 249.924 174.042C248.622 175.491 246.753 176.215 244.317 176.215C242.049 176.215 240.295 175.533 239.056 174.168C237.817 172.782 237.198 170.818 237.198 168.277C237.198 165.673 237.859 163.668 239.182 162.261C240.505 160.833 242.374 160.119 244.789 160.119ZM244.569 162.103C242.91 162.103 241.671 162.576 240.852 163.521C240.054 164.466 239.655 165.957 239.655 167.994C239.655 170.178 240.054 171.763 240.852 172.75C241.65 173.737 242.868 174.231 244.506 174.231C246.186 174.231 247.435 173.748 248.254 172.782C249.073 171.816 249.483 170.304 249.483 168.246C249.483 166.125 249.073 164.571 248.254 163.584C247.456 162.597 246.228 162.103 244.569 162.103ZM260.78 160.15C262.061 160.15 263.342 160.402 264.623 160.906L264.213 163.237L263.835 163.332C263.247 162.87 262.691 162.534 262.166 162.324C261.641 162.093 261.095 161.977 260.528 161.977C259.625 161.977 258.911 162.219 258.386 162.702C257.861 163.164 257.598 163.699 257.598 164.308C257.598 164.917 257.85 165.411 258.354 165.789C258.879 166.167 259.677 166.587 260.748 167.049C261.693 167.469 262.439 167.847 262.985 168.183C263.552 168.519 264.035 168.97 264.434 169.537C264.854 170.083 265.064 170.755 265.064 171.553C265.064 172.372 264.843 173.139 264.402 173.853C263.961 174.546 263.31 175.113 262.449 175.554C261.609 175.974 260.601 176.184 259.425 176.184C258.69 176.184 257.913 176.1 257.094 175.932C256.296 175.743 255.551 175.47 254.858 175.113L255.141 172.624L255.456 172.498C256.044 173.086 256.727 173.548 257.504 173.884C258.302 174.199 259.037 174.357 259.709 174.357C260.591 174.357 261.315 174.126 261.882 173.664C262.449 173.181 262.733 172.603 262.733 171.931C262.733 171.301 262.47 170.797 261.945 170.419C261.441 170.041 260.643 169.6 259.551 169.096C258.648 168.697 257.903 168.33 257.315 167.994C256.748 167.658 256.265 167.217 255.866 166.671C255.467 166.104 255.267 165.421 255.267 164.623C255.267 163.783 255.488 163.027 255.929 162.355C256.391 161.683 257.031 161.148 257.85 160.749C258.69 160.35 259.667 160.15 260.78 160.15ZM278.961 160.497L278.803 162.481L275.874 162.261H274.299L274.204 171.081L274.299 175.995H271.936L272.031 171.27L271.968 162.261H270.393L267.4 162.481L267.211 162.261L267.4 160.308H278.835L278.961 160.497ZM297.91 160.497L297.753 162.481L294.823 162.261H293.248L293.154 171.081L293.248 175.995H290.886L290.98 171.27L290.917 162.261H289.342L286.35 162.481L286.161 162.261L286.35 160.308H297.784L297.91 160.497ZM314.779 171.081L314.842 175.995H312.511L312.606 171.27L312.574 169.128L304.038 169.159L304.006 171.081L304.069 175.995H301.738L301.833 171.27L301.738 160.308H304.101L304.038 167.049L308.29 167.08L312.574 167.049L312.511 160.308H314.874L314.779 171.081ZM330.079 173.979L330.268 174.168L330.047 175.995H320.503L320.597 171.27L320.503 160.308H330.11L330.268 160.497L330.079 162.324L326.11 162.198L322.834 162.229L322.802 166.986L325.921 167.017L328.661 166.923L328.819 167.143L328.63 169.002L325.732 168.907L322.802 168.939L322.771 171.081L322.802 174.073L325.889 174.105L330.079 173.979ZM55.9884 198.15C57.6264 198.15 59.2749 198.507 60.9339 199.221L60.1464 201.489H59.8629C59.0859 200.985 58.3719 200.639 57.7209 200.45C57.0699 200.24 56.3664 200.135 55.6104 200.135C53.8254 200.135 52.4814 200.639 51.5784 201.647C50.6964 202.655 50.2554 204.23 50.2554 206.372C50.2554 208.43 50.6649 209.921 51.4839 210.845C52.3029 211.748 53.6049 212.199 55.3899 212.199C55.9149 212.199 56.4189 212.157 56.9019 212.073C57.3849 211.968 57.9729 211.79 58.6659 211.538V209.963L58.6344 207.726L60.8079 207.569V213.239C58.6869 213.869 56.8494 214.184 55.2954 214.184C52.8174 214.184 50.9379 213.522 49.6569 212.199C48.3969 210.855 47.7669 208.944 47.7669 206.466C47.7669 203.778 48.4809 201.72 49.9089 200.292C51.3579 198.864 53.3844 198.15 55.9884 198.15ZM72.9784 207.663C74.2594 209.616 75.6769 211.538 77.2309 213.428L77.1994 213.743C76.3174 214.016 75.5929 214.173 75.0259 214.215L74.6164 213.963C73.0204 211.548 71.8129 209.648 70.9939 208.262L68.0329 208.293V209.081L68.0959 213.995H65.7649L65.8594 209.27L65.7649 198.308L71.1199 198.276C72.7789 198.276 74.0494 198.665 74.9314 199.442C75.8344 200.219 76.2859 201.342 76.2859 202.812C76.2859 203.883 75.9919 204.839 75.4039 205.679C74.8369 206.519 74.0284 207.18 72.9784 207.663ZM68.0644 206.34L71.0254 206.435C72.8944 205.91 73.8289 204.765 73.8289 203.001C73.8289 202.077 73.5559 201.384 73.0099 200.922C72.4639 200.46 71.6344 200.208 70.5214 200.166L68.0959 200.198L68.0644 206.34ZM87.2583 198.119C89.5473 198.119 91.3008 198.791 92.5188 200.135C93.7578 201.479 94.3773 203.379 94.3773 205.836C94.3773 208.503 93.7158 210.572 92.3928 212.042C91.0908 213.491 89.2218 214.215 86.7858 214.215C84.5178 214.215 82.7643 213.533 81.5253 212.168C80.2863 210.782 79.6668 208.818 79.6668 206.277C79.6668 203.673 80.3283 201.668 81.6513 200.261C82.9743 198.833 84.8433 198.119 87.2583 198.119ZM87.0378 200.103C85.3788 200.103 84.1398 200.576 83.3208 201.521C82.5228 202.466 82.1238 203.957 82.1238 205.994C82.1238 208.178 82.5228 209.763 83.3208 210.75C84.1188 211.737 85.3368 212.231 86.9748 212.231C88.6548 212.231 89.9043 211.748 90.7233 210.782C91.5423 209.816 91.9518 208.304 91.9518 206.246C91.9518 204.125 91.5423 202.571 90.7233 201.584C89.9253 200.597 88.6968 200.103 87.0378 200.103ZM113.518 213.995H110.998L107.911 205.427H107.722L104.477 213.995H101.957L96.8229 198.308H99.1854L99.4689 199.977L103.312 211.38H103.469L106.903 202.214L105.611 198.308H108.068L108.415 200.166L112.258 211.38H112.447L116.699 200.103L117.077 198.308H119.377L113.518 213.995ZM132.72 198.497L132.562 200.481L129.633 200.261H128.058L127.963 209.081L128.058 213.995H125.695L125.79 209.27L125.727 200.261H124.152L121.159 200.481L120.97 200.261L121.159 198.308H132.594L132.72 198.497ZM149.589 209.081L149.652 213.995H147.321L147.415 209.27L147.384 207.128L138.847 207.159L138.816 209.081L138.879 213.995H136.548L136.642 209.27L136.548 198.308H138.91L138.847 205.049L143.1 205.08L147.384 205.049L147.321 198.308H149.683L149.589 209.081ZM166.685 198.119C168.974 198.119 170.728 198.791 171.946 200.135C173.185 201.479 173.804 203.379 173.804 205.836C173.804 208.503 173.143 210.572 171.82 212.042C170.518 213.491 168.649 214.215 166.213 214.215C163.945 214.215 162.191 213.533 160.952 212.168C159.713 210.782 159.094 208.818 159.094 206.277C159.094 203.673 159.755 201.668 161.078 200.261C162.401 198.833 164.27 198.119 166.685 198.119ZM166.465 200.103C164.806 200.103 163.567 200.576 162.748 201.521C161.95 202.466 161.551 203.957 161.551 205.994C161.551 208.178 161.95 209.763 162.748 210.75C163.546 211.737 164.764 212.231 166.402 212.231C168.082 212.231 169.331 211.748 170.15 210.782C170.969 209.816 171.379 208.304 171.379 206.246C171.379 204.125 170.969 202.571 170.15 201.584C169.352 200.597 168.124 200.103 166.465 200.103ZM180.219 200.229L180.187 205.395L182.896 205.427L185.668 205.332L185.826 205.553L185.668 207.348L182.676 207.317L180.156 207.348V209.081L180.219 213.995H177.888L177.951 209.27L177.888 198.308H187.023L187.149 198.497L186.96 200.324L183.085 200.198L180.219 200.229ZM200.875 209.49L200.97 213.995H198.607L198.733 209.49L198.702 208.514L193.378 198.308H195.961L196.276 199.221L199.804 205.962H199.962L203.805 199.316L204.214 198.308H206.734L200.907 208.514L200.875 209.49ZM215.412 198.119C217.701 198.119 219.454 198.791 220.672 200.135C221.911 201.479 222.531 203.379 222.531 205.836C222.531 208.503 221.869 210.572 220.546 212.042C219.244 213.491 217.375 214.215 214.939 214.215C212.671 214.215 210.918 213.533 209.679 212.168C208.44 210.782 207.82 208.818 207.82 206.277C207.82 203.673 208.482 201.668 209.805 200.261C211.128 198.833 212.997 198.119 215.412 198.119ZM215.191 200.103C213.532 200.103 212.293 200.576 211.474 201.521C210.676 202.466 210.277 203.957 210.277 205.994C210.277 208.178 210.676 209.763 211.474 210.75C212.272 211.737 213.49 212.231 215.128 212.231C216.808 212.231 218.058 211.748 218.877 210.782C219.696 209.816 220.105 208.304 220.105 206.246C220.105 204.125 219.696 202.571 218.877 201.584C218.079 200.597 216.85 200.103 215.191 200.103ZM238.836 206.277V208.545C238.857 210.33 238.311 211.716 237.198 212.703C236.106 213.69 234.531 214.184 232.473 214.184C230.436 214.184 228.882 213.701 227.811 212.735C226.74 211.748 226.226 210.351 226.268 208.545L226.299 206.151L226.268 198.308H228.63L228.504 208.167C228.483 209.49 228.809 210.488 229.481 211.16C230.174 211.832 231.203 212.168 232.568 212.168C233.912 212.168 234.93 211.832 235.623 211.16C236.316 210.488 236.652 209.49 236.631 208.167L236.537 198.308H238.931L238.836 206.277ZM251.273 207.663C252.554 209.616 253.972 211.538 255.526 213.428L255.494 213.743C254.612 214.016 253.888 214.173 253.321 214.215L252.911 213.963C251.315 211.548 250.108 209.648 249.289 208.262L246.328 208.293V209.081L246.391 213.995H244.06L244.154 209.27L244.06 198.308L249.415 198.276C251.074 198.276 252.344 198.665 253.226 199.442C254.129 200.219 254.581 201.342 254.581 202.812C254.581 203.883 254.287 204.839 253.699 205.679C253.132 206.519 252.323 207.18 251.273 207.663ZM246.359 206.34L249.32 206.435C251.189 205.91 252.124 204.765 252.124 203.001C252.124 202.077 251.851 201.384 251.305 200.922C250.759 200.46 249.929 200.208 248.816 200.166L246.391 200.198L246.359 206.34ZM269.516 198.15C270.797 198.15 272.078 198.402 273.359 198.906L272.95 201.237L272.572 201.332C271.984 200.87 271.427 200.534 270.902 200.324C270.377 200.093 269.831 199.977 269.264 199.977C268.361 199.977 267.647 200.219 267.122 200.702C266.597 201.164 266.335 201.699 266.335 202.308C266.335 202.917 266.587 203.411 267.091 203.789C267.616 204.167 268.414 204.587 269.485 205.049C270.43 205.469 271.175 205.847 271.721 206.183C272.288 206.519 272.771 206.97 273.17 207.537C273.59 208.083 273.8 208.755 273.8 209.553C273.8 210.372 273.58 211.139 273.139 211.853C272.698 212.546 272.047 213.113 271.186 213.554C270.346 213.974 269.338 214.184 268.162 214.184C267.427 214.184 266.65 214.1 265.831 213.932C265.033 213.743 264.287 213.47 263.594 213.113L263.878 210.624L264.193 210.498C264.781 211.086 265.463 211.548 266.24 211.884C267.038 212.199 267.773 212.357 268.445 212.357C269.327 212.357 270.052 212.126 270.619 211.664C271.186 211.181 271.469 210.603 271.469 209.931C271.469 209.301 271.207 208.797 270.682 208.419C270.178 208.041 269.38 207.6 268.288 207.096C267.385 206.697 266.639 206.33 266.051 205.994C265.484 205.658 265.001 205.217 264.602 204.671C264.203 204.104 264.004 203.421 264.004 202.623C264.004 201.783 264.224 201.027 264.665 200.355C265.127 199.683 265.768 199.148 266.587 198.749C267.427 198.35 268.403 198.15 269.516 198.15ZM284.441 198.119C286.73 198.119 288.483 198.791 289.701 200.135C290.94 201.479 291.56 203.379 291.56 205.836C291.56 208.503 290.898 210.572 289.575 212.042C288.273 213.491 286.404 214.215 283.968 214.215C281.7 214.215 279.947 213.533 278.708 212.168C277.469 210.782 276.849 208.818 276.849 206.277C276.849 203.673 277.511 201.668 278.834 200.261C280.157 198.833 282.026 198.119 284.441 198.119ZM284.22 200.103C282.561 200.103 281.322 200.576 280.503 201.521C279.705 202.466 279.306 203.957 279.306 205.994C279.306 208.178 279.705 209.763 280.503 210.75C281.301 211.737 282.519 212.231 284.157 212.231C285.837 212.231 287.087 211.748 287.906 210.782C288.725 209.816 289.134 208.304 289.134 206.246C289.134 204.125 288.725 202.571 287.906 201.584C287.108 200.597 285.879 200.103 284.22 200.103ZM301.912 198.15C303.655 198.15 305.167 198.518 306.448 199.253L306.007 201.426L305.724 201.521C305.199 201.08 304.59 200.733 303.897 200.481C303.204 200.229 302.458 200.103 301.66 200.103C300.106 200.103 298.92 200.607 298.101 201.615C297.282 202.602 296.872 204.083 296.872 206.057C296.872 208.052 297.282 209.574 298.101 210.624C298.92 211.674 300.106 212.199 301.66 212.199C302.416 212.199 303.172 212.073 303.928 211.821C304.705 211.548 305.398 211.191 306.007 210.75L306.291 210.845L306.07 213.018C304.642 213.795 303.141 214.184 301.566 214.184C299.256 214.184 297.481 213.501 296.242 212.136C295.003 210.75 294.384 208.787 294.384 206.246C294.384 203.663 295.035 201.668 296.337 200.261C297.66 198.854 299.518 198.15 301.912 198.15ZM312.589 209.081L312.652 213.995H310.321L310.415 209.27L310.321 198.308H312.683L312.589 209.081ZM330.694 213.995H328.332L327.954 212.294L327.135 209.963L323.386 209.931L320.047 209.963L319.197 212.168L318.756 213.995H316.425L322.473 198.308H325.182L330.694 213.995ZM326.473 208.041L323.859 200.607H323.67L320.803 208.041L323.575 208.073L326.473 208.041ZM343.034 212.231L342.876 213.995H334.529L334.623 209.27L334.529 198.308H336.891L336.797 209.081L336.86 212.01H342.908L343.034 212.231ZM108.392 251.995H106.282L105.935 247.207L105.085 239.962H104.896L100.391 250.231H98.5326L94.2801 239.962H94.0911L93.2721 247.018L92.8311 251.995H90.8151L92.5476 236.308H95.2881L96.0756 238.67L99.5091 247.112H99.6981L103.289 238.544L104.108 236.308H106.786L108.392 251.995ZM122.776 249.979L122.965 250.168L122.744 251.995H113.2L113.294 247.27L113.2 236.308H122.807L122.965 236.497L122.776 238.324L118.807 238.198L115.531 238.229L115.499 242.986L118.618 243.017L121.358 242.923L121.516 243.143L121.327 245.002L118.429 244.907L115.499 244.939L115.468 247.081L115.499 250.073L118.586 250.105L122.776 249.979ZM133.031 236.182C135.425 236.182 137.252 236.822 138.512 238.103C139.793 239.384 140.433 241.222 140.433 243.616C140.433 246.367 139.74 248.477 138.354 249.947C136.968 251.417 134.984 252.152 132.401 252.152C131.666 252.152 130.784 252.131 129.755 252.089C128.747 252.068 127.791 252.037 126.888 251.995L126.983 247.27L126.888 236.308L133.031 236.182ZM132.779 250.231C134.459 250.231 135.75 249.727 136.653 248.719C137.577 247.69 138.039 246.146 138.039 244.088C138.039 242.072 137.609 240.581 136.748 239.615C135.887 238.649 134.585 238.166 132.842 238.166C131.813 238.166 130.605 238.208 129.219 238.292L129.156 247.081L129.188 250.042C129.797 250.084 130.437 250.126 131.109 250.168C131.781 250.21 132.338 250.231 132.779 250.231ZM146.998 247.081L147.061 251.995H144.73L144.825 247.27L144.73 236.308H147.093L146.998 247.081ZM165.104 251.995H162.742L162.364 250.294L161.545 247.963L157.796 247.931L154.457 247.963L153.607 250.168L153.166 251.995H150.835L156.883 236.308H159.592L165.104 251.995ZM160.883 246.041L158.269 238.607H158.08L155.213 246.041L157.985 246.073L160.883 246.041ZM186.422 251.995H184.059L183.681 250.294L182.862 247.963L179.114 247.931L175.775 247.963L174.924 250.168L174.483 251.995H172.152L178.2 236.308H180.909L186.422 251.995ZM182.201 246.041L179.586 238.607H179.397L176.531 246.041L179.303 246.073L182.201 246.041ZM195.999 236.15C197.742 236.15 199.254 236.518 200.535 237.253L200.094 239.426L199.811 239.521C199.286 239.08 198.677 238.733 197.984 238.481C197.291 238.229 196.545 238.103 195.747 238.103C194.193 238.103 193.007 238.607 192.188 239.615C191.369 240.602 190.959 242.083 190.959 244.057C190.959 246.052 191.369 247.574 192.188 248.624C193.007 249.674 194.193 250.199 195.747 250.199C196.503 250.199 197.259 250.073 198.015 249.821C198.792 249.548 199.485 249.191 200.094 248.75L200.378 248.845L200.157 251.018C198.729 251.795 197.228 252.184 195.653 252.184C193.343 252.184 191.568 251.501 190.329 250.136C189.09 248.75 188.471 246.787 188.471 244.246C188.471 241.663 189.122 239.668 190.424 238.261C191.747 236.854 193.605 236.15 195.999 236.15ZM210.488 236.15C212.231 236.15 213.743 236.518 215.024 237.253L214.583 239.426L214.3 239.521C213.775 239.08 213.166 238.733 212.473 238.481C211.78 238.229 211.034 238.103 210.236 238.103C208.682 238.103 207.496 238.607 206.677 239.615C205.858 240.602 205.448 242.083 205.448 244.057C205.448 246.052 205.858 247.574 206.677 248.624C207.496 249.674 208.682 250.199 210.236 250.199C210.992 250.199 211.748 250.073 212.504 249.821C213.281 249.548 213.974 249.191 214.583 248.75L214.867 248.845L214.646 251.018C213.218 251.795 211.717 252.184 210.142 252.184C207.832 252.184 206.057 251.501 204.818 250.136C203.579 248.75 202.96 246.787 202.96 244.246C202.96 241.663 203.611 239.668 204.913 238.261C206.236 236.854 208.094 236.15 210.488 236.15ZM225.04 236.119C227.329 236.119 229.083 236.791 230.301 238.135C231.54 239.479 232.159 241.379 232.159 243.836C232.159 246.503 231.498 248.572 230.175 250.042C228.873 251.491 227.004 252.215 224.568 252.215C222.3 252.215 220.546 251.533 219.307 250.168C218.068 248.782 217.449 246.818 217.449 244.277C217.449 241.673 218.11 239.668 219.433 238.261C220.756 236.833 222.625 236.119 225.04 236.119ZM224.82 238.103C223.161 238.103 221.922 238.576 221.103 239.521C220.305 240.466 219.906 241.957 219.906 243.994C219.906 246.178 220.305 247.763 221.103 248.75C221.901 249.737 223.119 250.231 224.757 250.231C226.437 250.231 227.686 249.748 228.505 248.782C229.324 247.816 229.734 246.304 229.734 244.246C229.734 242.125 229.324 240.571 228.505 239.584C227.707 238.597 226.479 238.103 224.82 238.103ZM248.465 244.277V246.545C248.486 248.33 247.94 249.716 246.827 250.703C245.735 251.69 244.16 252.184 242.102 252.184C240.065 252.184 238.511 251.701 237.44 250.735C236.369 249.748 235.854 248.351 235.896 246.545L235.928 244.151L235.896 236.308H238.259L238.133 246.167C238.112 247.49 238.437 248.488 239.109 249.16C239.802 249.832 240.831 250.168 242.196 250.168C243.54 250.168 244.559 249.832 245.252 249.16C245.945 248.488 246.281 247.49 246.26 246.167L246.165 236.308H248.559L248.465 244.277ZM266.698 247.301L266.729 251.995H264.209L255.956 240.025H255.799L255.767 246.766L255.83 251.995H253.688L253.783 247.364L253.72 236.308H256.208L264.461 248.278H264.682L264.619 236.402L266.792 236.245L266.698 247.301ZM281.945 236.497L281.787 238.481L278.858 238.261H277.283L277.188 247.081L277.283 251.995H274.92L275.015 247.27L274.952 238.261H273.377L270.384 238.481L270.195 238.261L270.384 236.308H281.819L281.945 236.497ZM289.911 236.15C291.192 236.15 292.473 236.402 293.754 236.906L293.345 239.237L292.967 239.332C292.379 238.87 291.822 238.534 291.297 238.324C290.772 238.093 290.226 237.977 289.659 237.977C288.756 237.977 288.042 238.219 287.517 238.702C286.992 239.164 286.73 239.699 286.73 240.308C286.73 240.917 286.982 241.411 287.486 241.789C288.011 242.167 288.809 242.587 289.88 243.049C290.825 243.469 291.57 243.847 292.116 244.183C292.683 244.519 293.166 244.97 293.565 245.537C293.985 246.083 294.195 246.755 294.195 247.553C294.195 248.372 293.975 249.139 293.534 249.853C293.093 250.546 292.442 251.113 291.581 251.554C290.741 251.974 289.733 252.184 288.557 252.184C287.822 252.184 287.045 252.1 286.226 251.932C285.428 251.743 284.682 251.47 283.989 251.113L284.273 248.624L284.588 248.498C285.176 249.086 285.858 249.548 286.635 249.884C287.433 250.199 288.168 250.357 288.84 250.357C289.722 250.357 290.447 250.126 291.014 249.664C291.581 249.181 291.864 248.603 291.864 247.931C291.864 247.301 291.602 246.797 291.077 246.419C290.573 246.041 289.775 245.6 288.683 245.096C287.78 244.697 287.034 244.33 286.446 243.994C285.879 243.658 285.396 243.217 284.997 242.671C284.598 242.104 284.399 241.421 284.399 240.623C284.399 239.783 284.619 239.027 285.06 238.355C285.522 237.683 286.163 237.148 286.982 236.749C287.822 236.35 288.798 236.15 289.911 236.15ZM297.574 249.223C297.994 249.223 298.33 249.349 298.582 249.601C298.834 249.853 298.96 250.199 298.96 250.64C298.96 251.102 298.823 251.47 298.55 251.743C298.298 252.016 297.941 252.152 297.479 252.152C297.038 252.152 296.692 252.026 296.44 251.774C296.209 251.522 296.093 251.165 296.093 250.703C296.093 250.262 296.219 249.905 296.471 249.632C296.744 249.359 297.112 249.223 297.574 249.223Z" fill="white"/>
    <rect width="94" height="43" transform="translate(148.005 288.985)" fill="#BB012A"/>
    <path d="M169.155 305.857C170.135 305.857 171.017 306.039 171.801 306.403L171.395 308.111L171.213 308.139C170.755 307.878 170.345 307.691 169.981 307.579C169.626 307.458 169.243 307.397 168.833 307.397C168.002 307.397 167.395 307.644 167.013 308.139C166.63 308.634 166.439 309.446 166.439 310.575C166.439 311.322 166.518 311.914 166.677 312.353C166.845 312.792 167.101 313.114 167.447 313.319C167.792 313.515 168.249 313.613 168.819 313.613C169.015 313.613 169.197 313.599 169.365 313.571C169.542 313.543 169.757 313.492 170.009 313.417L170.037 312.647L170.009 311.219L171.759 311.093L171.717 312.353L171.759 314.551C170.639 314.924 169.607 315.111 168.665 315.111C167.265 315.111 166.21 314.728 165.501 313.963C164.801 313.198 164.451 312.101 164.451 310.673C164.451 309.114 164.857 307.924 165.669 307.103C166.49 306.272 167.652 305.857 169.155 305.857ZM178.101 311.961L174.321 311.989C174.405 313.156 174.998 313.739 176.099 313.739C176.678 313.739 177.322 313.576 178.031 313.249L178.185 313.347L177.905 314.733C177.196 314.994 176.528 315.125 175.903 315.125C174.876 315.125 174.069 314.826 173.481 314.229C172.902 313.632 172.613 312.806 172.613 311.751C172.613 310.706 172.898 309.88 173.467 309.273C174.036 308.657 174.806 308.349 175.777 308.349C176.608 308.349 177.247 308.578 177.695 309.035C178.152 309.483 178.381 310.113 178.381 310.925C178.381 311.14 178.358 311.41 178.311 311.737L178.101 311.961ZM176.757 310.715C176.757 310.342 176.673 310.062 176.505 309.875C176.337 309.679 176.09 309.581 175.763 309.581C175.399 309.581 175.096 309.702 174.853 309.945C174.61 310.178 174.447 310.519 174.363 310.967L176.729 310.911L176.757 310.715ZM182.297 313.613C182.595 313.613 182.908 313.534 183.235 313.375L183.389 313.515L183.207 314.621C182.731 314.864 182.245 315.013 181.751 315.069C180.491 314.938 179.861 314.322 179.861 313.221L179.931 312.059L179.917 309.651H179.049L178.979 309.553L179.077 308.531H179.903V307.453L181.597 306.907L181.723 307.019L181.681 308.531H183.347L183.403 308.629L183.319 309.651H181.653L181.569 312.787C181.569 313.086 181.625 313.3 181.737 313.431C181.849 313.552 182.035 313.613 182.297 313.613ZM188.698 308.363C189.333 308.363 189.93 308.47 190.49 308.685L190.238 310.057L190.014 310.127C189.744 309.95 189.473 309.814 189.202 309.721C188.932 309.628 188.694 309.581 188.488 309.581C188.264 309.581 188.087 309.642 187.956 309.763C187.826 309.875 187.76 310.015 187.76 310.183C187.76 310.379 187.844 310.538 188.012 310.659C188.19 310.78 188.465 310.916 188.838 311.065C189.212 311.214 189.52 311.359 189.762 311.499C190.005 311.639 190.21 311.835 190.378 312.087C190.556 312.33 190.644 312.633 190.644 312.997C190.644 313.37 190.546 313.72 190.35 314.047C190.164 314.364 189.874 314.626 189.482 314.831C189.09 315.027 188.61 315.125 188.04 315.125C187.368 315.125 186.673 314.985 185.954 314.705L186.164 313.249L186.346 313.137C186.636 313.38 186.958 313.576 187.312 313.725C187.667 313.865 187.98 313.935 188.25 313.935C188.502 313.935 188.698 313.874 188.838 313.753C188.978 313.622 189.048 313.468 189.048 313.291C189.048 313.095 188.96 312.936 188.782 312.815C188.614 312.694 188.344 312.558 187.97 312.409C187.588 312.241 187.275 312.092 187.032 311.961C186.79 311.821 186.58 311.625 186.402 311.373C186.234 311.121 186.15 310.808 186.15 310.435C186.15 309.828 186.379 309.334 186.836 308.951C187.294 308.559 187.914 308.363 188.698 308.363ZM194.519 313.613C194.818 313.613 195.131 313.534 195.457 313.375L195.611 313.515L195.429 314.621C194.953 314.864 194.468 315.013 193.973 315.069C192.713 314.938 192.083 314.322 192.083 313.221L192.153 312.059L192.139 309.651H191.271L191.201 309.553L191.299 308.531H192.125V307.453L193.819 306.907L193.945 307.019L193.903 308.531H195.569L195.625 308.629L195.541 309.651H193.875L193.791 312.787C193.791 313.086 193.847 313.3 193.959 313.431C194.071 313.552 194.258 313.613 194.519 313.613ZM199.18 308.349C199.898 308.349 200.458 308.512 200.86 308.839C201.27 309.156 201.476 309.604 201.476 310.183C201.476 310.351 201.448 310.883 201.392 311.779C201.382 312.04 201.368 312.311 201.35 312.591C201.331 312.862 201.322 313.095 201.322 313.291C201.322 313.45 201.345 313.562 201.392 313.627C201.438 313.683 201.522 313.711 201.644 313.711C201.737 313.711 201.858 313.692 202.008 313.655L202.148 313.767L201.98 314.747C201.681 314.943 201.34 315.06 200.958 315.097C200.678 315.069 200.444 314.971 200.258 314.803C200.071 314.626 199.945 314.383 199.88 314.075H199.782C199.315 314.57 198.834 314.915 198.34 315.111C197.668 315.102 197.14 314.924 196.758 314.579C196.375 314.234 196.184 313.762 196.184 313.165C196.184 312.698 196.3 312.334 196.534 312.073C196.776 311.802 197.14 311.62 197.626 311.527L199.768 311.121V310.547C199.768 309.94 199.469 309.637 198.872 309.637C198.582 309.637 198.274 309.702 197.948 309.833C197.63 309.964 197.271 310.169 196.87 310.449L196.73 310.365L196.52 309.133C196.921 308.881 197.35 308.69 197.808 308.559C198.265 308.419 198.722 308.349 199.18 308.349ZM198.27 312.381C198.12 312.418 198.008 312.484 197.934 312.577C197.868 312.661 197.836 312.792 197.836 312.969C197.836 313.212 197.901 313.403 198.032 313.543C198.162 313.674 198.344 313.739 198.578 313.739C198.942 313.739 199.324 313.524 199.726 313.095L199.754 312.059L198.27 312.381ZM206.874 308.461C206.958 308.461 207.075 308.47 207.224 308.489V310.211L207.028 310.281C206.869 310.216 206.697 310.183 206.51 310.183C205.969 310.183 205.479 310.533 205.04 311.233V312.115L205.138 314.985H203.276L203.388 312.297L203.304 308.601L205.068 308.447L205.054 309.721H205.166C205.623 308.881 206.193 308.461 206.874 308.461ZM210.83 313.613C211.129 313.613 211.441 313.534 211.768 313.375L211.922 313.515L211.74 314.621C211.264 314.864 210.779 315.013 210.284 315.069C209.024 314.938 208.394 314.322 208.394 313.221L208.464 312.059L208.45 309.651H207.582L207.512 309.553L207.61 308.531H208.436V307.453L210.13 306.907L210.256 307.019L210.214 308.531H211.88L211.936 308.629L211.852 309.651H210.186L210.102 312.787C210.102 313.086 210.158 313.3 210.27 313.431C210.382 313.552 210.569 313.613 210.83 313.613ZM217.873 311.961L214.093 311.989C214.177 313.156 214.769 313.739 215.871 313.739C216.449 313.739 217.093 313.576 217.803 313.249L217.957 313.347L217.677 314.733C216.967 314.994 216.3 315.125 215.675 315.125C214.648 315.125 213.841 314.826 213.253 314.229C212.674 313.632 212.385 312.806 212.385 311.751C212.385 310.706 212.669 309.88 213.239 309.273C213.808 308.657 214.578 308.349 215.549 308.349C216.379 308.349 217.019 308.578 217.467 309.035C217.924 309.483 218.153 310.113 218.153 310.925C218.153 311.14 218.129 311.41 218.083 311.737L217.873 311.961ZM216.529 310.715C216.529 310.342 216.445 310.062 216.277 309.875C216.109 309.679 215.861 309.581 215.535 309.581C215.171 309.581 214.867 309.702 214.625 309.945C214.382 310.178 214.219 310.519 214.135 310.967L216.501 310.911L216.529 310.715ZM224.868 312.115L224.91 313.291C224.91 313.45 224.929 313.562 224.966 313.627C225.013 313.683 225.092 313.711 225.204 313.711C225.307 313.711 225.433 313.692 225.582 313.655L225.708 313.767L225.554 314.747C225.237 314.943 224.891 315.06 224.518 315.097C224.229 315.069 223.986 314.971 223.79 314.803C223.594 314.635 223.459 314.406 223.384 314.117H223.272C222.815 314.537 222.348 314.859 221.872 315.083C220.957 315.083 220.248 314.794 219.744 314.215C219.24 313.627 218.988 312.815 218.988 311.779C218.988 310.678 219.277 309.833 219.856 309.245C220.435 308.657 221.237 308.363 222.264 308.363C222.535 308.363 222.833 308.391 223.16 308.447L223.132 305.297L224.98 305.157L224.868 312.115ZM222.138 309.623C221.205 309.623 220.738 310.216 220.738 311.401C220.738 312.138 220.85 312.694 221.074 313.067C221.298 313.44 221.625 313.627 222.054 313.627C222.465 313.627 222.843 313.436 223.188 313.053L223.216 312.283L223.174 309.875C222.81 309.707 222.465 309.623 222.138 309.623Z" fill="white"/>
    <a href="https://www.figma.com/file/Z6VV6wXXp5kbnhsthlWTRk/Aceboost-(Copy)?type=design&#38;node-id=1-529&#38;mode=design">
        <rect fill="black" fill-opacity="0" x="0.0537109" y="2.1" width="61.8874" height="16.8"/>
    </a>
</svg>
