<svg width="1151" height="245" viewBox="0 0 1151 245" fill="none" xmlns="http://www.w3.org/2000/svg">
    <rect width="1151" height="244.99" fill="#174584"/>
    <path d="M234.775 52.0775L234.744 54.3455C234.786 56.8235 234.135 58.7555 232.791 60.1415C231.447 61.5275 229.536 62.2205 227.058 62.2205C224.685 62.2205 222.858 61.559 221.577 60.236C220.317 58.913 219.708 57.044 219.75 54.629L219.781 51.8885L219.75 41.8085H222.238L222.144 54.314C222.123 56.204 222.543 57.632 223.404 58.598C224.265 59.543 225.546 60.0155 227.247 60.0155C228.948 60.0155 230.239 59.564 231.121 58.661C232.003 57.758 232.434 56.414 232.413 54.629L232.287 41.8085H234.807L234.775 52.0775ZM244.603 46.1555C245.884 46.1555 247.165 46.4075 248.446 46.9115L248.036 49.2425L247.658 49.337C247.07 48.875 246.514 48.539 245.989 48.329C245.464 48.098 244.918 47.9825 244.351 47.9825C243.448 47.9825 242.734 48.224 242.209 48.707C241.684 49.169 241.421 49.7045 241.421 50.3135C241.421 50.9225 241.673 51.416 242.177 51.794C242.702 52.172 243.5 52.592 244.571 53.054C245.516 53.474 246.262 53.852 246.808 54.188C247.375 54.524 247.858 54.9755 248.257 55.5425C248.677 56.0885 248.887 56.7605 248.887 57.5585C248.887 58.3775 248.666 59.144 248.225 59.858C247.784 60.551 247.133 61.118 246.272 61.559C245.432 61.979 244.424 62.189 243.248 62.189C242.513 62.189 241.736 62.105 240.917 61.937C240.119 61.748 239.374 61.475 238.681 61.118L238.964 58.6295L239.279 58.5035C239.867 59.0915 240.55 59.5535 241.327 59.8895C242.125 60.2045 242.86 60.362 243.532 60.362C244.414 60.362 245.138 60.131 245.705 59.669C246.272 59.186 246.556 58.6085 246.556 57.9365C246.556 57.3065 246.293 56.8025 245.768 56.4245C245.264 56.0465 244.466 55.6055 243.374 55.1015C242.471 54.7025 241.726 54.335 241.138 53.999C240.571 53.663 240.088 53.222 239.689 52.676C239.29 52.109 239.09 51.4265 239.09 50.6285C239.09 49.7885 239.311 49.0325 239.752 48.3605C240.214 47.6885 240.854 47.153 241.673 46.754C242.513 46.355 243.49 46.1555 244.603 46.1555ZM262.929 59.984L263.118 60.173L262.898 62H253.353L253.448 57.275L253.353 46.313H262.961L263.118 46.502L262.929 48.329L258.96 48.203L255.684 48.2345L255.653 52.991L258.771 53.0225L261.512 52.928L261.669 53.1485L261.48 55.007L258.582 54.9125L255.653 54.944L255.621 57.086L255.653 60.0785L258.74 60.11L262.929 59.984ZM278.415 46.124C280.704 46.124 282.458 46.796 283.676 48.14C284.915 49.484 285.534 51.3845 285.534 53.8415C285.534 56.5085 284.873 58.577 283.55 60.047C282.248 61.496 280.379 62.2205 277.943 62.2205C275.675 62.2205 273.921 61.538 272.682 60.173C271.443 58.787 270.824 56.8235 270.824 54.2825C270.824 51.6785 271.485 49.673 272.808 48.266C274.131 46.838 276 46.124 278.415 46.124ZM278.195 48.1085C276.536 48.1085 275.297 48.581 274.478 49.526C273.68 50.471 273.281 51.962 273.281 53.999C273.281 56.183 273.68 57.7685 274.478 58.7555C275.276 59.7425 276.494 60.236 278.132 60.236C279.812 60.236 281.061 59.753 281.88 58.787C282.699 57.821 283.109 56.309 283.109 54.251C283.109 52.13 282.699 50.576 281.88 49.589C281.082 48.602 279.854 48.1085 278.195 48.1085ZM301.84 54.2825V56.5505C301.861 58.3355 301.315 59.7215 300.202 60.7085C299.11 61.6955 297.535 62.189 295.477 62.189C293.44 62.189 291.886 61.706 290.815 60.74C289.744 59.753 289.229 58.3565 289.271 56.5505L289.303 54.1565L289.271 46.313H291.634L291.508 56.1725C291.487 57.4955 291.812 58.493 292.484 59.165C293.177 59.837 294.206 60.173 295.571 60.173C296.915 60.173 297.934 59.837 298.627 59.165C299.32 58.493 299.656 57.4955 299.635 56.1725L299.54 46.313H301.934L301.84 54.2825ZM314.277 55.6685C315.558 57.6215 316.975 59.543 318.529 61.433L318.498 61.748C317.616 62.021 316.891 62.1785 316.324 62.2205L315.915 61.9685C314.319 59.5535 313.111 57.653 312.292 56.267L309.331 56.2985V57.086L309.394 62H307.063L307.158 57.275L307.063 46.313L312.418 46.2815C314.077 46.2815 315.348 46.67 316.23 47.447C317.133 48.224 317.584 49.3475 317.584 50.8175C317.584 51.8885 317.29 52.844 316.702 53.684C316.135 54.524 315.327 55.1855 314.277 55.6685ZM309.363 54.3455L312.324 54.44C314.193 53.915 315.127 52.7705 315.127 51.0065C315.127 50.0825 314.854 49.3895 314.308 48.9275C313.762 48.4655 312.933 48.2135 311.82 48.1715L309.394 48.203L309.363 54.3455ZM334 46.1555C335.743 46.1555 337.255 46.523 338.536 47.258L338.095 49.4315L337.812 49.526C337.287 49.085 336.678 48.7385 335.985 48.4865C335.292 48.2345 334.546 48.1085 333.748 48.1085C332.194 48.1085 331.008 48.6125 330.189 49.6205C329.37 50.6075 328.96 52.088 328.96 54.062C328.96 56.057 329.37 57.5795 330.189 58.6295C331.008 59.6795 332.194 60.2045 333.748 60.2045C334.504 60.2045 335.26 60.0785 336.016 59.8265C336.793 59.5535 337.486 59.1965 338.095 58.7555L338.379 58.85L338.158 61.0235C336.73 61.8005 335.229 62.189 333.654 62.189C331.344 62.189 329.569 61.5065 328.33 60.1415C327.091 58.7555 326.472 56.792 326.472 54.251C326.472 51.668 327.123 49.673 328.425 48.266C329.748 46.859 331.606 46.1555 334 46.1555ZM354.473 54.2825V56.5505C354.494 58.3355 353.948 59.7215 352.835 60.7085C351.743 61.6955 350.168 62.189 348.11 62.189C346.073 62.189 344.519 61.706 343.448 60.74C342.377 59.753 341.863 58.3565 341.905 56.5505L341.936 54.1565L341.905 46.313H344.267L344.141 56.1725C344.12 57.4955 344.446 58.493 345.118 59.165C345.811 59.837 346.84 60.173 348.205 60.173C349.549 60.173 350.567 59.837 351.26 59.165C351.953 58.493 352.289 57.4955 352.268 56.1725L352.174 46.313H354.568L354.473 54.2825ZM364.327 46.1555C365.608 46.1555 366.889 46.4075 368.17 46.9115L367.761 49.2425L367.383 49.337C366.795 48.875 366.238 48.539 365.713 48.329C365.188 48.098 364.642 47.9825 364.075 47.9825C363.172 47.9825 362.458 48.224 361.933 48.707C361.408 49.169 361.146 49.7045 361.146 50.3135C361.146 50.9225 361.398 51.416 361.902 51.794C362.427 52.172 363.225 52.592 364.296 53.054C365.241 53.474 365.986 53.852 366.532 54.188C367.099 54.524 367.582 54.9755 367.981 55.5425C368.401 56.0885 368.611 56.7605 368.611 57.5585C368.611 58.3775 368.391 59.144 367.95 59.858C367.509 60.551 366.858 61.118 365.997 61.559C365.157 61.979 364.149 62.189 362.973 62.189C362.238 62.189 361.461 62.105 360.642 61.937C359.844 61.748 359.098 61.475 358.405 61.118L358.689 58.6295L359.004 58.5035C359.592 59.0915 360.274 59.5535 361.051 59.8895C361.849 60.2045 362.584 60.362 363.256 60.362C364.138 60.362 364.863 60.131 365.43 59.669C365.997 59.186 366.28 58.6085 366.28 57.9365C366.28 57.3065 366.018 56.8025 365.493 56.4245C364.989 56.0465 364.191 55.6055 363.099 55.1015C362.196 54.7025 361.45 54.335 360.862 53.999C360.295 53.663 359.812 53.222 359.413 52.676C359.014 52.109 358.815 51.4265 358.815 50.6285C358.815 49.7885 359.035 49.0325 359.476 48.3605C359.938 47.6885 360.579 47.153 361.398 46.754C362.238 46.355 363.214 46.1555 364.327 46.1555ZM382.508 46.502L382.351 48.4865L379.421 48.266H377.846L377.752 57.086L377.846 62H375.484L375.578 57.275L375.515 48.266H373.94L370.948 48.4865L370.759 48.266L370.948 46.313H382.382L382.508 46.502ZM391.249 46.124C393.538 46.124 395.292 46.796 396.51 48.14C397.749 49.484 398.368 51.3845 398.368 53.8415C398.368 56.5085 397.707 58.577 396.384 60.047C395.082 61.496 393.213 62.2205 390.777 62.2205C388.509 62.2205 386.755 61.538 385.516 60.173C384.277 58.787 383.658 56.8235 383.658 54.2825C383.658 51.6785 384.319 49.673 385.642 48.266C386.965 46.838 388.834 46.124 391.249 46.124ZM391.029 48.1085C389.37 48.1085 388.131 48.581 387.312 49.526C386.514 50.471 386.115 51.962 386.115 53.999C386.115 56.183 386.514 57.7685 387.312 58.7555C388.11 59.7425 389.328 60.236 390.966 60.236C392.646 60.236 393.895 59.753 394.714 58.787C395.533 57.821 395.943 56.309 395.943 54.251C395.943 52.13 395.533 50.576 394.714 49.589C393.916 48.602 392.688 48.1085 391.029 48.1085ZM419.304 62H417.194L416.847 57.212L415.997 49.967H415.808L411.303 60.236H409.445L405.192 49.967H405.003L404.184 57.023L403.743 62H401.727L403.46 46.313H406.2L406.988 48.6755L410.421 57.1175H410.61L414.201 48.5495L415.02 46.313H417.698L419.304 62ZM446.005 62H443.895L443.548 57.212L442.698 49.967H442.509L438.004 60.236H436.146L431.893 49.967H431.704L430.885 57.023L430.444 62H428.428L430.161 46.313H432.901L433.689 48.6755L437.122 57.1175H437.311L440.902 48.5495L441.721 46.313H444.399L446.005 62ZM463.035 62H460.672L460.294 60.299L459.475 57.968L455.727 57.9365L452.388 57.968L451.537 60.173L451.096 62H448.765L454.813 46.313H457.522L463.035 62ZM458.814 56.0465L456.199 48.6125H456.01L453.144 56.0465L455.916 56.078L458.814 56.0465ZM473.075 46.187C475.469 46.187 477.296 46.8275 478.556 48.1085C479.837 49.3895 480.477 51.227 480.477 53.621C480.477 56.372 479.784 58.4825 478.398 59.9525C477.012 61.4225 475.028 62.1575 472.445 62.1575C471.71 62.1575 470.828 62.1365 469.799 62.0945C468.791 62.0735 467.835 62.042 466.932 62L467.027 57.275L466.932 46.313L473.075 46.187ZM472.823 60.236C474.503 60.236 475.794 59.732 476.697 58.724C477.621 57.695 478.083 56.1515 478.083 54.0935C478.083 52.0775 477.653 50.5865 476.792 49.6205C475.931 48.6545 474.629 48.1715 472.886 48.1715C471.857 48.1715 470.649 48.2135 469.263 48.2975L469.2 57.086L469.232 60.047C469.841 60.089 470.481 60.131 471.153 60.173C471.825 60.215 472.382 60.236 472.823 60.236ZM494.35 59.984L494.539 60.173L494.318 62H484.774L484.868 57.275L484.774 46.313H494.381L494.539 46.502L494.35 48.329L490.381 48.203L487.105 48.2345L487.073 52.991L490.192 53.0225L492.932 52.928L493.09 53.1485L492.901 55.007L490.003 54.9125L487.073 54.944L487.042 57.086L487.073 60.0785L490.16 60.11L494.35 59.984ZM508.292 46.1555C509.573 46.1555 510.854 46.4075 512.135 46.9115L511.726 49.2425L511.348 49.337C510.76 48.875 510.203 48.539 509.678 48.329C509.153 48.098 508.607 47.9825 508.04 47.9825C507.137 47.9825 506.423 48.224 505.898 48.707C505.373 49.169 505.111 49.7045 505.111 50.3135C505.111 50.9225 505.363 51.416 505.867 51.794C506.392 52.172 507.19 52.592 508.261 53.054C509.206 53.474 509.951 53.852 510.497 54.188C511.064 54.524 511.547 54.9755 511.946 55.5425C512.366 56.0885 512.576 56.7605 512.576 57.5585C512.576 58.3775 512.356 59.144 511.915 59.858C511.474 60.551 510.823 61.118 509.962 61.559C509.122 61.979 508.114 62.189 506.938 62.189C506.203 62.189 505.426 62.105 504.607 61.937C503.809 61.748 503.063 61.475 502.37 61.118L502.654 58.6295L502.969 58.5035C503.557 59.0915 504.239 59.5535 505.016 59.8895C505.814 60.2045 506.549 60.362 507.221 60.362C508.103 60.362 508.828 60.131 509.395 59.669C509.962 59.186 510.245 58.6085 510.245 57.9365C510.245 57.3065 509.983 56.8025 509.458 56.4245C508.954 56.0465 508.156 55.6055 507.064 55.1015C506.161 54.7025 505.415 54.335 504.827 53.999C504.26 53.663 503.777 53.222 503.378 52.676C502.979 52.109 502.78 51.4265 502.78 50.6285C502.78 49.7885 503 49.0325 503.441 48.3605C503.903 47.6885 504.544 47.153 505.363 46.754C506.203 46.355 507.179 46.1555 508.292 46.1555ZM523.217 46.124C525.506 46.124 527.259 46.796 528.477 48.14C529.716 49.484 530.336 51.3845 530.336 53.8415C530.336 56.5085 529.674 58.577 528.351 60.047C527.049 61.496 525.18 62.2205 522.744 62.2205C520.476 62.2205 518.723 61.538 517.484 60.173C516.245 58.787 515.625 56.8235 515.625 54.2825C515.625 51.6785 516.287 49.673 517.61 48.266C518.933 46.838 520.802 46.124 523.217 46.124ZM522.996 48.1085C521.337 48.1085 520.098 48.581 519.279 49.526C518.481 50.471 518.082 51.962 518.082 53.999C518.082 56.183 518.481 57.7685 519.279 58.7555C520.077 59.7425 521.295 60.236 522.933 60.236C524.613 60.236 525.863 59.753 526.682 58.787C527.501 57.821 527.91 56.309 527.91 54.251C527.91 52.13 527.501 50.576 526.682 49.589C525.884 48.602 524.655 48.1085 522.996 48.1085ZM540.688 46.1555C542.431 46.1555 543.943 46.523 545.224 47.258L544.783 49.4315L544.5 49.526C543.975 49.085 543.366 48.7385 542.673 48.4865C541.98 48.2345 541.234 48.1085 540.436 48.1085C538.882 48.1085 537.696 48.6125 536.877 49.6205C536.058 50.6075 535.648 52.088 535.648 54.062C535.648 56.057 536.058 57.5795 536.877 58.6295C537.696 59.6795 538.882 60.2045 540.436 60.2045C541.192 60.2045 541.948 60.0785 542.704 59.8265C543.481 59.5535 544.174 59.1965 544.783 58.7555L545.067 58.85L544.846 61.0235C543.418 61.8005 541.917 62.189 540.342 62.189C538.032 62.189 536.257 61.5065 535.018 60.1415C533.779 58.7555 533.16 56.792 533.16 54.251C533.16 51.668 533.811 49.673 535.113 48.266C536.436 46.859 538.294 46.1555 540.688 46.1555ZM551.365 57.086L551.428 62H549.097L549.191 57.275L549.097 46.313H551.459L551.365 57.086ZM569.47 62H567.108L566.73 60.299L565.911 57.968L562.162 57.9365L558.823 57.968L557.973 60.173L557.532 62H555.201L561.249 46.313H563.958L569.47 62ZM565.249 56.0465L562.635 48.6125H562.446L559.579 56.0465L562.351 56.078L565.249 56.0465ZM581.81 60.236L581.652 62H573.305L573.399 57.275L573.305 46.313H575.667L575.573 57.086L575.636 60.0155H581.684L581.81 60.236ZM607.135 62H605.025L604.678 57.212L603.828 49.967H603.639L599.134 60.236H597.276L593.023 49.967H592.834L592.015 57.023L591.574 62H589.558L591.291 46.313H594.031L594.819 48.6755L598.252 57.1175H598.441L602.032 48.5495L602.851 46.313H605.529L607.135 62ZM621.519 59.984L621.708 60.173L621.487 62H611.943L612.037 57.275L611.943 46.313H621.55L621.708 46.502L621.519 48.329L617.55 48.203L614.274 48.2345L614.242 52.991L617.361 53.0225L620.101 52.928L620.259 53.1485L620.07 55.007L617.172 54.9125L614.242 54.944L614.211 57.086L614.242 60.0785L617.329 60.11L621.519 59.984ZM631.774 46.187C634.168 46.187 635.995 46.8275 637.255 48.1085C638.536 49.3895 639.177 51.227 639.177 53.621C639.177 56.372 638.484 58.4825 637.098 59.9525C635.712 61.4225 633.727 62.1575 631.144 62.1575C630.409 62.1575 629.527 62.1365 628.498 62.0945C627.49 62.0735 626.535 62.042 625.632 62L625.726 57.275L625.632 46.313L631.774 46.187ZM631.522 60.236C633.202 60.236 634.494 59.732 635.397 58.724C636.321 57.695 636.783 56.1515 636.783 54.0935C636.783 52.0775 636.352 50.5865 635.491 49.6205C634.63 48.6545 633.328 48.1715 631.585 48.1715C630.556 48.1715 629.349 48.2135 627.963 48.2975L627.9 57.086L627.931 60.047C628.54 60.089 629.181 60.131 629.853 60.173C630.525 60.215 631.081 60.236 631.522 60.236ZM645.742 57.086L645.805 62H643.474L643.568 57.275L643.474 46.313H645.836L645.742 57.086ZM663.847 62H661.485L661.107 60.299L660.288 57.968L656.539 57.9365L653.2 57.968L652.35 60.173L651.909 62H649.578L655.626 46.313H658.335L663.847 62ZM659.626 56.0465L657.012 48.6125H656.823L653.956 56.0465L656.728 56.078L659.626 56.0465ZM689.638 62H687.528L687.181 57.212L686.331 49.967H686.142L681.637 60.236H679.779L675.526 49.967H675.337L674.518 57.023L674.077 62H672.061L673.794 46.313H676.534L677.322 48.6755L680.755 57.1175H680.944L684.535 48.5495L685.354 46.313H688.032L689.638 62ZM706.668 62H704.305L703.927 60.299L703.108 57.968L699.36 57.9365L696.021 57.968L695.17 60.173L694.729 62H692.398L698.446 46.313H701.155L706.668 62ZM702.447 56.0465L699.832 48.6125H699.643L696.777 56.0465L699.549 56.078L702.447 56.0465ZM717.778 55.6685C719.059 57.6215 720.477 59.543 722.031 61.433L721.999 61.748C721.117 62.021 720.393 62.1785 719.826 62.2205L719.416 61.9685C717.82 59.5535 716.613 57.653 715.794 56.267L712.833 56.2985V57.086L712.896 62H710.565L710.659 57.275L710.565 46.313L715.92 46.2815C717.579 46.2815 718.849 46.67 719.731 47.447C720.634 48.224 721.086 49.3475 721.086 50.8175C721.086 51.8885 720.792 52.844 720.204 53.684C719.637 54.524 718.828 55.1855 717.778 55.6685ZM712.864 54.3455L715.825 54.44C717.694 53.915 718.629 52.7705 718.629 51.0065C718.629 50.0825 718.356 49.3895 717.81 48.9275C717.264 48.4655 716.434 48.2135 715.321 48.1715L712.896 48.203L712.864 54.3455ZM731.295 53.6525C733.521 56.3825 735.883 58.9865 738.382 61.4645L738.319 61.811C737.668 62.021 736.912 62.1785 736.051 62.2835L735.673 62.126C732.985 59.102 730.665 56.33 728.712 53.81V53.621L734.13 47.699L735.169 46.313L737.973 46.2815L731.295 53.6525ZM728.46 57.086L728.523 62H726.192L726.286 57.275L726.192 46.313H728.554L728.46 57.086ZM751.21 59.984L751.399 60.173L751.179 62H741.634L741.729 57.275L741.634 46.313H751.242L751.399 46.502L751.21 48.329L747.241 48.203L743.965 48.2345L743.934 52.991L747.052 53.0225L749.793 52.928L749.95 53.1485L749.761 55.007L746.863 54.9125L743.934 54.944L743.902 57.086L743.934 60.0785L747.021 60.11L751.21 59.984ZM765.246 46.502L765.088 48.4865L762.159 48.266H760.584L760.489 57.086L760.584 62H758.221L758.316 57.275L758.253 48.266H756.678L753.685 48.4865L753.496 48.266L753.685 46.313H765.12L765.246 46.502ZM771.342 57.086L771.405 62H769.074L769.168 57.275L769.074 46.313H771.436L771.342 57.086ZM790.235 57.3065L790.267 62H787.747L779.494 50.03H779.336L779.305 56.771L779.368 62H777.226L777.32 57.3695L777.257 46.313H779.746L787.999 58.283H788.219L788.156 46.4075L790.33 46.25L790.235 57.3065ZM802.271 46.1555C803.909 46.1555 805.558 46.5125 807.217 47.2265L806.429 49.4945H806.146C805.369 48.9905 804.655 48.644 804.004 48.455C803.353 48.245 802.649 48.14 801.893 48.14C800.108 48.14 798.764 48.644 797.861 49.652C796.979 50.66 796.538 52.235 796.538 54.377C796.538 56.435 796.948 57.926 797.767 58.85C798.586 59.753 799.888 60.2045 801.673 60.2045C802.198 60.2045 802.702 60.1625 803.185 60.0785C803.668 59.9735 804.256 59.795 804.949 59.543V57.968L804.917 55.7315L807.091 55.574V61.244C804.97 61.874 803.132 62.189 801.578 62.189C799.1 62.189 797.221 61.5275 795.94 60.2045C794.68 58.8605 794.05 56.9495 794.05 54.4715C794.05 51.7835 794.764 49.7255 796.192 48.2975C797.641 46.8695 799.667 46.1555 802.271 46.1555ZM821.877 46.1555C823.158 46.1555 824.439 46.4075 825.72 46.9115L825.31 49.2425L824.932 49.337C824.344 48.875 823.788 48.539 823.263 48.329C822.738 48.098 822.192 47.9825 821.625 47.9825C820.722 47.9825 820.008 48.224 819.483 48.707C818.958 49.169 818.695 49.7045 818.695 50.3135C818.695 50.9225 818.947 51.416 819.451 51.794C819.976 52.172 820.774 52.592 821.845 53.054C822.79 53.474 823.536 53.852 824.082 54.188C824.649 54.524 825.132 54.9755 825.531 55.5425C825.951 56.0885 826.161 56.7605 826.161 57.5585C826.161 58.3775 825.94 59.144 825.499 59.858C825.058 60.551 824.407 61.118 823.546 61.559C822.706 61.979 821.698 62.189 820.522 62.189C819.787 62.189 819.01 62.105 818.191 61.937C817.393 61.748 816.648 61.475 815.955 61.118L816.238 58.6295L816.553 58.5035C817.141 59.0915 817.824 59.5535 818.601 59.8895C819.399 60.2045 820.134 60.362 820.806 60.362C821.688 60.362 822.412 60.131 822.979 59.669C823.546 59.186 823.83 58.6085 823.83 57.9365C823.83 57.3065 823.567 56.8025 823.042 56.4245C822.538 56.0465 821.74 55.6055 820.648 55.1015C819.745 54.7025 819 54.335 818.412 53.999C817.845 53.663 817.362 53.222 816.963 52.676C816.564 52.109 816.364 51.4265 816.364 50.6285C816.364 49.7885 816.585 49.0325 817.026 48.3605C817.488 47.6885 818.128 47.153 818.947 46.754C819.787 46.355 820.764 46.1555 821.877 46.1555ZM840.204 59.984L840.393 60.173L840.172 62H830.628L830.722 57.275L830.628 46.313H840.235L840.393 46.502L840.204 48.329L836.235 48.203L832.959 48.2345L832.927 52.991L836.046 53.0225L838.786 52.928L838.944 53.1485L838.755 55.007L835.857 54.9125L832.927 54.944L832.896 57.086L832.927 60.0785L836.014 60.11L840.204 59.984ZM851.53 55.6685C852.811 57.6215 854.229 59.543 855.783 61.433L855.751 61.748C854.869 62.021 854.145 62.1785 853.578 62.2205L853.168 61.9685C851.572 59.5535 850.365 57.653 849.546 56.267L846.585 56.2985V57.086L846.648 62H844.317L844.411 57.275L844.317 46.313L849.672 46.2815C851.331 46.2815 852.601 46.67 853.483 47.447C854.386 48.224 854.838 49.3475 854.838 50.8175C854.838 51.8885 854.544 52.844 853.956 53.684C853.389 54.524 852.58 55.1855 851.53 55.6685ZM846.616 54.3455L849.577 54.44C851.446 53.915 852.381 52.7705 852.381 51.0065C852.381 50.0825 852.108 49.3895 851.562 48.9275C851.016 48.4655 850.186 48.2135 849.073 48.1715L846.648 48.203L846.616 54.3455ZM865.505 62H862.702L857.221 46.313H859.646L860.024 48.0455L864.088 59.669H864.245L868.75 48.14L869.128 46.313H871.49L865.505 62ZM877.223 57.086L877.286 62H874.955L875.05 57.275L874.955 46.313H877.318L877.223 57.086ZM888.695 46.1555C890.438 46.1555 891.95 46.523 893.231 47.258L892.79 49.4315L892.507 49.526C891.982 49.085 891.373 48.7385 890.68 48.4865C889.987 48.2345 889.241 48.1085 888.443 48.1085C886.889 48.1085 885.703 48.6125 884.884 49.6205C884.065 50.6075 883.655 52.088 883.655 54.062C883.655 56.057 884.065 57.5795 884.884 58.6295C885.703 59.6795 886.889 60.2045 888.443 60.2045C889.199 60.2045 889.955 60.0785 890.711 59.8265C891.488 59.5535 892.181 59.1965 892.79 58.7555L893.074 58.85L892.853 61.0235C891.425 61.8005 889.924 62.189 888.349 62.189C886.039 62.189 884.264 61.5065 883.025 60.1415C881.786 58.7555 881.167 56.792 881.167 54.251C881.167 51.668 881.818 49.673 883.12 48.266C884.443 46.859 886.301 46.1555 888.695 46.1555ZM906.68 59.984L906.869 60.173L906.648 62H897.104L897.198 57.275L897.104 46.313H906.711L906.869 46.502L906.68 48.329L902.711 48.203L899.435 48.2345L899.403 52.991L902.522 53.0225L905.262 52.928L905.42 53.1485L905.231 55.007L902.333 54.9125L899.403 54.944L899.372 57.086L899.403 60.0785L902.49 60.11L906.68 59.984ZM915.423 46.1555C916.704 46.1555 917.985 46.4075 919.266 46.9115L918.857 49.2425L918.479 49.337C917.891 48.875 917.334 48.539 916.809 48.329C916.284 48.098 915.738 47.9825 915.171 47.9825C914.268 47.9825 913.554 48.224 913.029 48.707C912.504 49.169 912.242 49.7045 912.242 50.3135C912.242 50.9225 912.494 51.416 912.998 51.794C913.523 52.172 914.321 52.592 915.392 53.054C916.337 53.474 917.082 53.852 917.628 54.188C918.195 54.524 918.678 54.9755 919.077 55.5425C919.497 56.0885 919.707 56.7605 919.707 57.5585C919.707 58.3775 919.487 59.144 919.046 59.858C918.605 60.551 917.954 61.118 917.093 61.559C916.253 61.979 915.245 62.189 914.069 62.189C913.334 62.189 912.557 62.105 911.738 61.937C910.94 61.748 910.194 61.475 909.501 61.118L909.785 58.6295L910.1 58.5035C910.688 59.0915 911.37 59.5535 912.147 59.8895C912.945 60.2045 913.68 60.362 914.352 60.362C915.234 60.362 915.959 60.131 916.526 59.669C917.093 59.186 917.376 58.6085 917.376 57.9365C917.376 57.3065 917.114 56.8025 916.589 56.4245C916.085 56.0465 915.287 55.6055 914.195 55.1015C913.292 54.7025 912.546 54.335 911.958 53.999C911.391 53.663 910.908 53.222 910.509 52.676C910.11 52.109 909.911 51.4265 909.911 50.6285C909.911 49.7885 910.131 49.0325 910.572 48.3605C911.034 47.6885 911.675 47.153 912.494 46.754C913.334 46.355 914.31 46.1555 915.423 46.1555ZM939.295 46.502L939.138 48.4865L936.208 48.266H934.633L934.539 57.086L934.633 62H932.271L932.365 57.275L932.302 48.266H930.727L927.735 48.4865L927.546 48.266L927.735 46.313H939.169L939.295 46.502ZM948.036 46.124C950.325 46.124 952.079 46.796 953.297 48.14C954.536 49.484 955.155 51.3845 955.155 53.8415C955.155 56.5085 954.494 58.577 953.171 60.047C951.869 61.496 950 62.2205 947.564 62.2205C945.296 62.2205 943.542 61.538 942.303 60.173C941.064 58.787 940.445 56.8235 940.445 54.2825C940.445 51.6785 941.106 49.673 942.429 48.266C943.752 46.838 945.621 46.124 948.036 46.124ZM947.816 48.1085C946.157 48.1085 944.918 48.581 944.099 49.526C943.301 50.471 942.902 51.962 942.902 53.999C942.902 56.183 943.301 57.7685 944.099 58.7555C944.897 59.7425 946.115 60.236 947.753 60.236C949.433 60.236 950.682 59.753 951.501 58.787C952.32 57.821 952.73 56.309 952.73 54.251C952.73 52.13 952.32 50.576 951.501 49.589C950.703 48.602 949.475 48.1085 947.816 48.1085ZM456.511 103.245C456.133 103.917 455.776 104.4 455.44 104.694L455.251 104.757C451.996 103.896 449.014 102.373 446.305 100.189C446.137 100.21 445.874 100.221 445.517 100.221C443.249 100.221 441.496 99.538 440.257 98.173C439.018 96.787 438.398 94.8235 438.398 92.2825C438.398 89.6785 439.06 87.673 440.383 86.266C441.706 84.838 443.575 84.124 445.99 84.124C448.279 84.124 450.032 84.796 451.25 86.14C452.489 87.484 453.109 89.3845 453.109 91.8415C453.109 93.9205 452.71 95.6425 451.912 97.0075C451.114 98.3515 449.959 99.2755 448.447 99.7795C450.946 101.376 453.602 102.447 456.416 102.993L456.511 103.245ZM440.855 91.999C440.855 94.183 441.254 95.7685 442.052 96.7555C442.85 97.7425 444.068 98.236 445.706 98.236C447.386 98.236 448.636 97.753 449.455 96.787C450.274 95.821 450.683 94.309 450.683 92.251C450.683 90.13 450.274 88.576 449.455 87.589C448.657 86.602 447.428 86.1085 445.769 86.1085C444.11 86.1085 442.871 86.581 442.052 87.526C441.254 88.471 440.855 89.962 440.855 91.999ZM469.507 92.2825V94.5505C469.528 96.3355 468.982 97.7215 467.869 98.7085C466.777 99.6955 465.202 100.189 463.144 100.189C461.107 100.189 459.553 99.706 458.482 98.74C457.411 97.753 456.896 96.3565 456.938 94.5505L456.97 92.1565L456.938 84.313H459.301L459.175 94.1725C459.154 95.4955 459.479 96.493 460.151 97.165C460.844 97.837 461.873 98.173 463.238 98.173C464.582 98.173 465.601 97.837 466.294 97.165C466.987 96.493 467.323 95.4955 467.302 94.1725L467.207 84.313H469.601L469.507 92.2825ZM476.998 95.086L477.061 100H474.73L474.825 95.275L474.73 84.313H477.093L476.998 95.086ZM488.47 84.1555C490.213 84.1555 491.725 84.523 493.006 85.258L492.565 87.4315L492.282 87.526C491.757 87.085 491.148 86.7385 490.455 86.4865C489.762 86.2345 489.016 86.1085 488.218 86.1085C486.664 86.1085 485.478 86.6125 484.659 87.6205C483.84 88.6075 483.43 90.088 483.43 92.062C483.43 94.057 483.84 95.5795 484.659 96.6295C485.478 97.6795 486.664 98.2045 488.218 98.2045C488.974 98.2045 489.73 98.0785 490.486 97.8265C491.263 97.5535 491.956 97.1965 492.565 96.7555L492.849 96.85L492.628 99.0235C491.2 99.8005 489.699 100.189 488.124 100.189C485.814 100.189 484.039 99.5065 482.8 98.1415C481.561 96.7555 480.942 94.792 480.942 92.251C480.942 89.668 481.593 87.673 482.895 86.266C484.218 84.859 486.076 84.1555 488.47 84.1555ZM501.982 91.6525C504.208 94.3825 506.57 96.9865 509.069 99.4645L509.006 99.811C508.355 100.021 507.599 100.179 506.738 100.284L506.36 100.126C503.672 97.102 501.352 94.33 499.399 91.81V91.621L504.817 85.699L505.856 84.313L508.66 84.2815L501.982 91.6525ZM499.147 95.086L499.21 100H496.879L496.973 95.275L496.879 84.313H499.241L499.147 95.086ZM520.763 98.236L520.605 100H512.258L512.352 95.275L512.258 84.313H514.62L514.526 95.086L514.589 98.0155H520.637L520.763 98.236ZM528.014 95.4955L528.109 100H525.746L525.872 95.4955L525.841 94.519L520.517 84.313H523.1L523.415 85.2265L526.943 91.9675H527.101L530.944 85.321L531.353 84.313H533.873L528.046 94.519L528.014 95.4955ZM554.874 100H552.512L552.134 98.299L551.315 95.968L547.566 95.9365L544.227 95.968L543.377 98.173L542.936 100H540.605L546.653 84.313H549.362L554.874 100ZM550.653 94.0465L548.039 86.6125H547.85L544.983 94.0465L547.755 94.078L550.653 94.0465ZM571.781 95.3065L571.812 100H569.292L561.039 88.03H560.882L560.85 94.771L560.913 100H558.771L558.866 95.3695L558.803 84.313H561.291L569.544 96.283H569.765L569.702 84.4075L571.875 84.25L571.781 95.3065ZM583.678 84.187C586.072 84.187 587.899 84.8275 589.159 86.1085C590.44 87.3895 591.081 89.227 591.081 91.621C591.081 94.372 590.388 96.4825 589.002 97.9525C587.616 99.4225 585.631 100.158 583.048 100.158C582.313 100.158 581.431 100.137 580.402 100.095C579.394 100.074 578.439 100.042 577.536 100L577.63 95.275L577.536 84.313L583.678 84.187ZM583.426 98.236C585.106 98.236 586.398 97.732 587.301 96.724C588.225 95.695 588.687 94.1515 588.687 92.0935C588.687 90.0775 588.256 88.5865 587.395 87.6205C586.534 86.6545 585.232 86.1715 583.489 86.1715C582.46 86.1715 581.253 86.2135 579.867 86.2975L579.804 95.086L579.835 98.047C580.444 98.089 581.085 98.131 581.757 98.173C582.429 98.215 582.985 98.236 583.426 98.236ZM610.152 97.984L610.341 98.173L610.121 100H600.576L600.671 95.275L600.576 84.313H610.184L610.341 84.502L610.152 86.329L606.183 86.203L602.907 86.2345L602.876 90.991L605.994 91.0225L608.735 90.928L608.892 91.1485L608.703 93.007L605.805 92.9125L602.876 92.944L602.844 95.086L602.876 98.0785L605.963 98.11L610.152 97.984ZM616.439 86.2345L616.407 91.4005L619.116 91.432L621.888 91.3375L622.046 91.558L621.888 93.3535L618.896 93.322L616.376 93.3535V95.086L616.439 100H614.108L614.171 95.275L614.108 84.313H623.243L623.369 84.502L623.18 86.329L619.305 86.203L616.439 86.2345ZM628.62 86.2345L628.589 91.4005L631.298 91.432L634.07 91.3375L634.227 91.558L634.07 93.3535L631.077 93.322L628.557 93.3535V95.086L628.62 100H626.289L626.352 95.275L626.289 84.313H635.424L635.55 84.502L635.361 86.329L631.487 86.203L628.62 86.2345ZM640.897 95.086L640.96 100H638.629L638.723 95.275L638.629 84.313H640.991L640.897 95.086ZM652.369 84.1555C654.112 84.1555 655.624 84.523 656.905 85.258L656.464 87.4315L656.18 87.526C655.655 87.085 655.046 86.7385 654.353 86.4865C653.66 86.2345 652.915 86.1085 652.117 86.1085C650.563 86.1085 649.376 86.6125 648.557 87.6205C647.738 88.6075 647.329 90.088 647.329 92.062C647.329 94.057 647.738 95.5795 648.557 96.6295C649.376 97.6795 650.563 98.2045 652.117 98.2045C652.873 98.2045 653.629 98.0785 654.385 97.8265C655.162 97.5535 655.855 97.1965 656.464 96.7555L656.747 96.85L656.527 99.0235C655.099 99.8005 653.597 100.189 652.022 100.189C649.712 100.189 647.938 99.5065 646.699 98.1415C645.46 96.7555 644.84 94.792 644.84 92.251C644.84 89.668 645.491 87.673 646.793 86.266C648.116 84.859 649.975 84.1555 652.369 84.1555ZM663.045 95.086L663.108 100H660.777L660.872 95.275L660.777 84.313H663.14L663.045 95.086ZM678.505 97.984L678.694 98.173L678.473 100H668.929L669.023 95.275L668.929 84.313H678.536L678.694 84.502L678.505 86.329L674.536 86.203L671.26 86.2345L671.228 90.991L674.347 91.0225L677.087 90.928L677.245 91.1485L677.056 93.007L674.158 92.9125L671.228 92.944L671.197 95.086L671.228 98.0785L674.315 98.11L678.505 97.984ZM695.627 95.3065L695.659 100H693.139L684.886 88.03H684.728L684.697 94.771L684.76 100H682.618L682.712 95.3695L682.649 84.313H685.138L693.391 96.283H693.611L693.548 84.4075L695.722 84.25L695.627 95.3065ZM710.874 84.502L710.717 86.4865L707.787 86.266H706.212L706.118 95.086L706.212 100H703.85L703.944 95.275L703.881 86.266H702.306L699.314 86.4865L699.125 86.266L699.314 84.313H710.748L710.874 84.502ZM723.144 98.236L722.987 100H714.639L714.734 95.275L714.639 84.313H717.002L716.907 95.086L716.97 98.0155H723.018L723.144 98.236ZM730.395 95.4955L730.49 100H728.127L728.253 95.4955L728.222 94.519L722.898 84.313H725.481L725.796 85.2265L729.324 91.9675H729.482L733.325 85.321L733.734 84.313H736.254L730.427 94.519L730.395 95.4955ZM273.091 129.841C275.422 130.303 276.587 131.542 276.587 133.558C276.587 135.07 275.999 136.204 274.823 136.961C273.647 137.717 271.925 138.095 269.657 138.095C268.292 138.095 266.98 138.063 265.72 138L265.814 133.275L265.72 122.313L270.634 122.281C272.209 122.281 273.427 122.617 274.288 123.289C275.17 123.94 275.611 124.875 275.611 126.093C275.611 126.996 275.39 127.762 274.949 128.392C274.508 129.022 273.889 129.505 273.091 129.841ZM273.122 126.376C273.122 125.599 272.87 125.032 272.366 124.675C271.862 124.318 271.054 124.14 269.941 124.14H268.019L267.988 128.991L270.791 129.085C271.568 128.917 272.146 128.623 272.524 128.203C272.923 127.762 273.122 127.153 273.122 126.376ZM269.941 136.299C271.306 136.299 272.345 136.068 273.059 135.606C273.794 135.123 274.162 134.419 274.162 133.495C274.162 132.739 273.91 132.151 273.406 131.731C272.902 131.311 272.135 131.028 271.106 130.881L267.988 130.912L267.956 133.086L268.019 136.204C268.67 136.267 269.311 136.299 269.941 136.299ZM287.059 122.124C289.348 122.124 291.102 122.796 292.32 124.14C293.559 125.484 294.178 127.384 294.178 129.841C294.178 132.508 293.517 134.577 292.194 136.047C290.892 137.496 289.023 138.221 286.587 138.221C284.319 138.221 282.565 137.538 281.326 136.173C280.087 134.787 279.468 132.823 279.468 130.282C279.468 127.678 280.129 125.673 281.452 124.266C282.775 122.838 284.644 122.124 287.059 122.124ZM286.839 124.108C285.18 124.108 283.941 124.581 283.122 125.526C282.324 126.471 281.925 127.962 281.925 129.999C281.925 132.183 282.324 133.768 283.122 134.755C283.92 135.742 285.138 136.236 286.776 136.236C288.456 136.236 289.705 135.753 290.524 134.787C291.343 133.821 291.753 132.309 291.753 130.251C291.753 128.13 291.343 126.576 290.524 125.589C289.726 124.602 288.498 124.108 286.839 124.108ZM304.593 122.124C306.882 122.124 308.636 122.796 309.854 124.14C311.093 125.484 311.712 127.384 311.712 129.841C311.712 132.508 311.051 134.577 309.728 136.047C308.426 137.496 306.557 138.221 304.121 138.221C301.853 138.221 300.099 137.538 298.86 136.173C297.621 134.787 297.002 132.823 297.002 130.282C297.002 127.678 297.663 125.673 298.986 124.266C300.309 122.838 302.178 122.124 304.593 122.124ZM304.373 124.108C302.714 124.108 301.475 124.581 300.656 125.526C299.858 126.471 299.459 127.962 299.459 129.999C299.459 132.183 299.858 133.768 300.656 134.755C301.454 135.742 302.672 136.236 304.31 136.236C305.99 136.236 307.239 135.753 308.058 134.787C308.877 133.821 309.287 132.309 309.287 130.251C309.287 128.13 308.877 126.576 308.058 125.589C307.26 124.602 306.032 124.108 304.373 124.108ZM320.584 122.155C321.865 122.155 323.146 122.407 324.427 122.911L324.018 125.242L323.64 125.337C323.052 124.875 322.495 124.539 321.97 124.329C321.445 124.098 320.899 123.982 320.332 123.982C319.429 123.982 318.715 124.224 318.19 124.707C317.665 125.169 317.403 125.704 317.403 126.313C317.403 126.922 317.655 127.416 318.159 127.794C318.684 128.172 319.482 128.592 320.553 129.054C321.498 129.474 322.243 129.852 322.789 130.188C323.356 130.524 323.839 130.975 324.238 131.542C324.658 132.088 324.868 132.76 324.868 133.558C324.868 134.377 324.648 135.144 324.207 135.858C323.766 136.551 323.115 137.118 322.254 137.559C321.414 137.979 320.406 138.189 319.23 138.189C318.495 138.189 317.718 138.105 316.899 137.937C316.101 137.748 315.355 137.475 314.662 137.118L314.946 134.629L315.261 134.503C315.849 135.091 316.531 135.553 317.308 135.889C318.106 136.204 318.841 136.362 319.513 136.362C320.395 136.362 321.12 136.131 321.687 135.669C322.254 135.186 322.537 134.608 322.537 133.936C322.537 133.306 322.275 132.802 321.75 132.424C321.246 132.046 320.448 131.605 319.356 131.101C318.453 130.702 317.707 130.335 317.119 129.999C316.552 129.663 316.069 129.222 315.67 128.676C315.271 128.109 315.072 127.426 315.072 126.628C315.072 125.788 315.292 125.032 315.733 124.36C316.195 123.688 316.836 123.153 317.655 122.754C318.495 122.355 319.471 122.155 320.584 122.155ZM338.765 122.502L338.608 124.486L335.678 124.266H334.103L334.009 133.086L334.103 138H331.741L331.835 133.275L331.772 124.266H330.197L327.205 124.486L327.016 124.266L327.205 122.313H338.639L338.765 122.502ZM357.714 122.502L357.557 124.486L354.627 124.266H353.052L352.958 133.086L353.052 138H350.69L350.784 133.275L350.721 124.266H349.146L346.154 124.486L345.965 124.266L346.154 122.313H357.588L357.714 122.502ZM374.583 133.086L374.646 138H372.315L372.41 133.275L372.378 131.133L363.842 131.164L363.81 133.086L363.873 138H361.542L361.637 133.275L361.542 122.313H363.905L363.842 129.054L368.094 129.085L372.378 129.054L372.315 122.313H374.678L374.583 133.086ZM389.883 135.984L390.072 136.173L389.852 138H380.307L380.402 133.275L380.307 122.313H389.915L390.072 122.502L389.883 124.329L385.914 124.203L382.638 124.234L382.607 128.991L385.725 129.022L388.466 128.928L388.623 129.148L388.434 131.007L385.536 130.912L382.607 130.944L382.575 133.086L382.607 136.078L385.694 136.11L389.883 135.984ZM405.999 122.155C407.637 122.155 409.285 122.512 410.944 123.226L410.157 125.494H409.873C409.096 124.99 408.382 124.644 407.731 124.455C407.08 124.245 406.377 124.14 405.621 124.14C403.836 124.14 402.492 124.644 401.589 125.652C400.707 126.66 400.266 128.235 400.266 130.377C400.266 132.435 400.675 133.926 401.494 134.85C402.313 135.753 403.615 136.204 405.4 136.204C405.925 136.204 406.429 136.162 406.912 136.078C407.395 135.973 407.983 135.795 408.676 135.543V133.968L408.645 131.731L410.818 131.574V137.244C408.697 137.874 406.86 138.189 405.306 138.189C402.828 138.189 400.948 137.527 399.667 136.204C398.407 134.86 397.777 132.949 397.777 130.471C397.777 127.783 398.491 125.725 399.919 124.297C401.368 122.869 403.395 122.155 405.999 122.155ZM422.989 131.668C424.27 133.621 425.687 135.543 427.241 137.433L427.21 137.748C426.328 138.021 425.603 138.179 425.036 138.221L424.627 137.968C423.031 135.553 421.823 133.653 421.004 132.267L418.043 132.298V133.086L418.106 138H415.775L415.87 133.275L415.775 122.313L421.13 122.281C422.789 122.281 424.06 122.67 424.942 123.447C425.845 124.224 426.296 125.347 426.296 126.817C426.296 127.888 426.002 128.844 425.414 129.684C424.847 130.524 424.039 131.185 422.989 131.668ZM418.075 130.345L421.036 130.44C422.905 129.915 423.839 128.77 423.839 127.006C423.839 126.082 423.566 125.389 423.02 124.927C422.474 124.465 421.645 124.213 420.532 124.171L418.106 124.203L418.075 130.345ZM437.269 122.124C439.558 122.124 441.311 122.796 442.529 124.14C443.768 125.484 444.388 127.384 444.388 129.841C444.388 132.508 443.726 134.577 442.403 136.047C441.101 137.496 439.232 138.221 436.796 138.221C434.528 138.221 432.775 137.538 431.536 136.173C430.297 134.787 429.677 132.823 429.677 130.282C429.677 127.678 430.339 125.673 431.662 124.266C432.985 122.838 434.854 122.124 437.269 122.124ZM437.048 124.108C435.389 124.108 434.15 124.581 433.331 125.526C432.533 126.471 432.134 127.962 432.134 129.999C432.134 132.183 432.533 133.768 433.331 134.755C434.129 135.742 435.347 136.236 436.985 136.236C438.665 136.236 439.915 135.753 440.734 134.787C441.553 133.821 441.962 132.309 441.962 130.251C441.962 128.13 441.553 126.576 440.734 125.589C439.936 124.602 438.707 124.108 437.048 124.108ZM463.528 138H461.008L457.921 129.432H457.732L454.488 138H451.968L446.833 122.313H449.196L449.479 123.982L453.322 135.385H453.48L456.913 126.219L455.622 122.313H458.079L458.425 124.171L462.268 135.385H462.457L466.71 124.108L467.088 122.313H469.387L463.528 138ZM482.73 122.502L482.573 124.486L479.643 124.266H478.068L477.974 133.086L478.068 138H475.706L475.8 133.275L475.737 124.266H474.162L471.17 124.486L470.981 124.266L471.17 122.313H482.604L482.73 122.502ZM499.599 133.086L499.662 138H497.331L497.426 133.275L497.394 131.133L488.858 131.164L488.826 133.086L488.889 138H486.558L486.653 133.275L486.558 122.313H488.921L488.858 129.054L493.11 129.085L497.394 129.054L497.331 122.313H499.694L499.599 133.086ZM516.695 122.124C518.984 122.124 520.738 122.796 521.956 124.14C523.195 125.484 523.814 127.384 523.814 129.841C523.814 132.508 523.153 134.577 521.83 136.047C520.528 137.496 518.659 138.221 516.223 138.221C513.955 138.221 512.201 137.538 510.962 136.173C509.723 134.787 509.104 132.823 509.104 130.282C509.104 127.678 509.765 125.673 511.088 124.266C512.411 122.838 514.28 122.124 516.695 122.124ZM516.475 124.108C514.816 124.108 513.577 124.581 512.758 125.526C511.96 126.471 511.561 127.962 511.561 129.999C511.561 132.183 511.96 133.768 512.758 134.755C513.556 135.742 514.774 136.236 516.412 136.236C518.092 136.236 519.341 135.753 520.16 134.787C520.979 133.821 521.389 132.309 521.389 130.251C521.389 128.13 520.979 126.576 520.16 125.589C519.362 124.602 518.134 124.108 516.475 124.108ZM530.229 124.234L530.198 129.4L532.907 129.432L535.679 129.337L535.836 129.558L535.679 131.353L532.686 131.322L530.166 131.353V133.086L530.229 138H527.898L527.961 133.275L527.898 122.313H537.033L537.159 122.502L536.97 124.329L533.096 124.203L530.229 124.234ZM550.885 133.495L550.98 138H548.617L548.743 133.495L548.712 132.519L543.388 122.313H545.971L546.286 123.226L549.814 129.967H549.972L553.815 123.321L554.224 122.313H556.744L550.917 132.519L550.885 133.495ZM565.422 122.124C567.711 122.124 569.464 122.796 570.682 124.14C571.921 125.484 572.541 127.384 572.541 129.841C572.541 132.508 571.879 134.577 570.556 136.047C569.254 137.496 567.385 138.221 564.949 138.221C562.681 138.221 560.928 137.538 559.689 136.173C558.45 134.787 557.83 132.823 557.83 130.282C557.83 127.678 558.492 125.673 559.815 124.266C561.138 122.838 563.007 122.124 565.422 122.124ZM565.201 124.108C563.542 124.108 562.303 124.581 561.484 125.526C560.686 126.471 560.287 127.962 560.287 129.999C560.287 132.183 560.686 133.768 561.484 134.755C562.282 135.742 563.5 136.236 565.138 136.236C566.818 136.236 568.068 135.753 568.887 134.787C569.706 133.821 570.115 132.309 570.115 130.251C570.115 128.13 569.706 126.576 568.887 125.589C568.089 124.602 566.86 124.108 565.201 124.108ZM588.847 130.282V132.55C588.868 134.335 588.322 135.721 587.209 136.708C586.117 137.695 584.542 138.189 582.484 138.189C580.447 138.189 578.893 137.706 577.822 136.74C576.751 135.753 576.236 134.356 576.278 132.55L576.31 130.156L576.278 122.313H578.641L578.515 132.172C578.494 133.495 578.819 134.493 579.491 135.165C580.184 135.837 581.213 136.173 582.578 136.173C583.922 136.173 584.941 135.837 585.634 135.165C586.327 134.493 586.663 133.495 586.642 132.172L586.547 122.313H588.941L588.847 130.282ZM601.284 131.668C602.565 133.621 603.982 135.543 605.536 137.433L605.505 137.748C604.623 138.021 603.898 138.179 603.331 138.221L602.922 137.968C601.326 135.553 600.118 133.653 599.299 132.267L596.338 132.298V133.086L596.401 138H594.07L594.165 133.275L594.07 122.313L599.425 122.281C601.084 122.281 602.355 122.67 603.237 123.447C604.14 124.224 604.591 125.347 604.591 126.817C604.591 127.888 604.297 128.844 603.709 129.684C603.142 130.524 602.334 131.185 601.284 131.668ZM596.37 130.345L599.331 130.44C601.2 129.915 602.134 128.77 602.134 127.006C602.134 126.082 601.861 125.389 601.315 124.927C600.769 124.465 599.94 124.213 598.827 124.171L596.401 124.203L596.37 130.345ZM619.526 122.155C620.807 122.155 622.088 122.407 623.369 122.911L622.96 125.242L622.582 125.337C621.994 124.875 621.437 124.539 620.912 124.329C620.387 124.098 619.841 123.982 619.274 123.982C618.371 123.982 617.657 124.224 617.132 124.707C616.607 125.169 616.345 125.704 616.345 126.313C616.345 126.922 616.597 127.416 617.101 127.794C617.626 128.172 618.424 128.592 619.495 129.054C620.44 129.474 621.185 129.852 621.731 130.188C622.298 130.524 622.781 130.975 623.18 131.542C623.6 132.088 623.81 132.76 623.81 133.558C623.81 134.377 623.59 135.144 623.149 135.858C622.708 136.551 622.057 137.118 621.196 137.559C620.356 137.979 619.348 138.189 618.172 138.189C617.437 138.189 616.66 138.105 615.841 137.937C615.043 137.748 614.297 137.475 613.604 137.118L613.888 134.629L614.203 134.503C614.791 135.091 615.473 135.553 616.25 135.889C617.048 136.204 617.783 136.362 618.455 136.362C619.337 136.362 620.062 136.131 620.629 135.669C621.196 135.186 621.479 134.608 621.479 133.936C621.479 133.306 621.217 132.802 620.692 132.424C620.188 132.046 619.39 131.605 618.298 131.101C617.395 130.702 616.649 130.335 616.061 129.999C615.494 129.663 615.011 129.222 614.612 128.676C614.213 128.109 614.014 127.426 614.014 126.628C614.014 125.788 614.234 125.032 614.675 124.36C615.137 123.688 615.778 123.153 616.597 122.754C617.437 122.355 618.413 122.155 619.526 122.155ZM634.451 122.124C636.74 122.124 638.494 122.796 639.712 124.14C640.951 125.484 641.57 127.384 641.57 129.841C641.57 132.508 640.909 134.577 639.586 136.047C638.284 137.496 636.415 138.221 633.979 138.221C631.711 138.221 629.957 137.538 628.718 136.173C627.479 134.787 626.86 132.823 626.86 130.282C626.86 127.678 627.521 125.673 628.844 124.266C630.167 122.838 632.036 122.124 634.451 122.124ZM634.231 124.108C632.572 124.108 631.333 124.581 630.514 125.526C629.716 126.471 629.317 127.962 629.317 129.999C629.317 132.183 629.716 133.768 630.514 134.755C631.312 135.742 632.53 136.236 634.168 136.236C635.848 136.236 637.097 135.753 637.916 134.787C638.735 133.821 639.145 132.309 639.145 130.251C639.145 128.13 638.735 126.576 637.916 125.589C637.118 124.602 635.89 124.108 634.231 124.108ZM651.922 122.155C653.665 122.155 655.177 122.523 656.458 123.258L656.017 125.431L655.734 125.526C655.209 125.085 654.6 124.738 653.907 124.486C653.214 124.234 652.468 124.108 651.67 124.108C650.116 124.108 648.93 124.612 648.111 125.62C647.292 126.607 646.882 128.088 646.882 130.062C646.882 132.057 647.292 133.579 648.111 134.629C648.93 135.679 650.116 136.204 651.67 136.204C652.426 136.204 653.182 136.078 653.938 135.826C654.715 135.553 655.408 135.196 656.017 134.755L656.301 134.85L656.08 137.023C654.652 137.8 653.151 138.189 651.576 138.189C649.266 138.189 647.491 137.506 646.252 136.141C645.013 134.755 644.394 132.792 644.394 130.251C644.394 127.668 645.045 125.673 646.347 124.266C647.67 122.859 649.528 122.155 651.922 122.155ZM662.599 133.086L662.662 138H660.331L660.426 133.275L660.331 122.313H662.694L662.599 133.086ZM680.705 138H678.342L677.964 136.299L677.145 133.968L673.397 133.936L670.058 133.968L669.207 136.173L668.766 138H666.435L672.483 122.313H675.192L680.705 138ZM676.484 132.046L673.869 124.612H673.68L670.814 132.046L673.586 132.078L676.484 132.046ZM693.044 136.236L692.886 138H684.539L684.633 133.275L684.539 122.313H686.901L686.807 133.086L686.87 136.015H692.918L693.044 136.236ZM718.37 138H716.259L715.913 133.212L715.062 125.967H714.873L710.369 136.236H708.51L704.258 125.967H704.069L703.25 133.023L702.809 138H700.793L702.525 122.313H705.266L706.053 124.675L709.487 133.117H709.676L713.267 124.549L714.086 122.313H716.763L718.37 138ZM732.753 135.984L732.942 136.173L732.722 138H723.177L723.272 133.275L723.177 122.313H732.785L732.942 122.502L732.753 124.329L728.784 124.203L725.508 124.234L725.477 128.991L728.595 129.022L731.336 128.928L731.493 129.148L731.304 131.007L728.406 130.912L725.477 130.944L725.445 133.086L725.477 136.078L728.564 136.11L732.753 135.984ZM743.009 122.187C745.403 122.187 747.23 122.827 748.49 124.108C749.771 125.389 750.411 127.227 750.411 129.621C750.411 132.372 749.718 134.482 748.332 135.952C746.946 137.422 744.962 138.158 742.379 138.158C741.644 138.158 740.762 138.137 739.733 138.095C738.725 138.074 737.769 138.042 736.866 138L736.961 133.275L736.866 122.313L743.009 122.187ZM742.757 136.236C744.437 136.236 745.728 135.732 746.631 134.724C747.555 133.695 748.017 132.151 748.017 130.093C748.017 128.077 747.587 126.586 746.726 125.62C745.865 124.654 744.563 124.171 742.82 124.171C741.791 124.171 740.583 124.213 739.197 124.297L739.134 133.086L739.166 136.047C739.775 136.089 740.415 136.131 741.087 136.173C741.759 136.215 742.316 136.236 742.757 136.236ZM756.976 133.086L757.039 138H754.708L754.802 133.275L754.708 122.313H757.07L756.976 133.086ZM775.082 138H772.719L772.341 136.299L771.522 133.968L767.774 133.936L764.435 133.968L763.584 136.173L763.143 138H760.812L766.86 122.313H769.569L775.082 138ZM770.861 132.046L768.246 124.612H768.057L765.191 132.046L767.963 132.078L770.861 132.046ZM796.4 138H794.037L793.659 136.299L792.84 133.968L789.092 133.936L785.753 133.968L784.902 136.173L784.461 138H782.13L788.178 122.313H790.887L796.4 138ZM792.179 132.046L789.564 124.612H789.375L786.509 132.046L789.281 132.078L792.179 132.046ZM805.977 122.155C807.72 122.155 809.232 122.523 810.513 123.258L810.072 125.431L809.789 125.526C809.264 125.085 808.655 124.738 807.962 124.486C807.269 124.234 806.523 124.108 805.725 124.108C804.171 124.108 802.985 124.612 802.166 125.62C801.347 126.607 800.937 128.088 800.937 130.062C800.937 132.057 801.347 133.579 802.166 134.629C802.985 135.679 804.171 136.204 805.725 136.204C806.481 136.204 807.237 136.078 807.993 135.826C808.77 135.553 809.463 135.196 810.072 134.755L810.356 134.85L810.135 137.023C808.707 137.8 807.206 138.189 805.631 138.189C803.321 138.189 801.546 137.506 800.307 136.141C799.068 134.755 798.449 132.792 798.449 130.251C798.449 127.668 799.1 125.673 800.402 124.266C801.725 122.859 803.583 122.155 805.977 122.155ZM820.466 122.155C822.209 122.155 823.721 122.523 825.002 123.258L824.561 125.431L824.277 125.526C823.752 125.085 823.143 124.738 822.45 124.486C821.757 124.234 821.012 124.108 820.214 124.108C818.66 124.108 817.473 124.612 816.654 125.62C815.835 126.607 815.426 128.088 815.426 130.062C815.426 132.057 815.835 133.579 816.654 134.629C817.473 135.679 818.66 136.204 820.214 136.204C820.97 136.204 821.726 136.078 822.482 135.826C823.259 135.553 823.952 135.196 824.561 134.755L824.844 134.85L824.624 137.023C823.196 137.8 821.694 138.189 820.119 138.189C817.809 138.189 816.035 137.506 814.796 136.141C813.557 134.755 812.937 132.792 812.937 130.251C812.937 127.668 813.588 125.673 814.89 124.266C816.213 122.859 818.072 122.155 820.466 122.155ZM835.018 122.124C837.307 122.124 839.06 122.796 840.278 124.14C841.517 125.484 842.137 127.384 842.137 129.841C842.137 132.508 841.475 134.577 840.152 136.047C838.85 137.496 836.981 138.221 834.545 138.221C832.277 138.221 830.524 137.538 829.285 136.173C828.046 134.787 827.426 132.823 827.426 130.282C827.426 127.678 828.088 125.673 829.411 124.266C830.734 122.838 832.603 122.124 835.018 122.124ZM834.797 124.108C833.138 124.108 831.899 124.581 831.08 125.526C830.282 126.471 829.883 127.962 829.883 129.999C829.883 132.183 830.282 133.768 831.08 134.755C831.878 135.742 833.096 136.236 834.734 136.236C836.414 136.236 837.664 135.753 838.483 134.787C839.302 133.821 839.711 132.309 839.711 130.251C839.711 128.13 839.302 126.576 838.483 125.589C837.685 124.602 836.456 124.108 834.797 124.108ZM858.442 130.282V132.55C858.463 134.335 857.917 135.721 856.804 136.708C855.712 137.695 854.137 138.189 852.079 138.189C850.042 138.189 848.488 137.706 847.417 136.74C846.346 135.753 845.832 134.356 845.874 132.55L845.905 130.156L845.874 122.313H848.236L848.11 132.172C848.089 133.495 848.415 134.493 849.087 135.165C849.78 135.837 850.809 136.173 852.174 136.173C853.518 136.173 854.536 135.837 855.229 135.165C855.922 134.493 856.258 133.495 856.237 132.172L856.143 122.313H858.537L858.442 130.282ZM876.675 133.306L876.707 138H874.187L865.934 126.03H865.776L865.745 132.771L865.808 138H863.666L863.76 133.37L863.697 122.313H866.186L874.439 134.283H874.659L874.596 122.407L876.77 122.25L876.675 133.306ZM891.922 122.502L891.765 124.486L888.835 124.266H887.26L887.166 133.086L887.26 138H884.898L884.992 133.275L884.929 124.266H883.354L880.362 124.486L880.173 124.266L880.362 122.313H891.796L891.922 122.502ZM899.889 122.155C901.17 122.155 902.451 122.407 903.732 122.911L903.322 125.242L902.944 125.337C902.356 124.875 901.8 124.539 901.275 124.329C900.75 124.098 900.204 123.982 899.637 123.982C898.734 123.982 898.02 124.224 897.495 124.707C896.97 125.169 896.707 125.704 896.707 126.313C896.707 126.922 896.959 127.416 897.463 127.794C897.988 128.172 898.786 128.592 899.857 129.054C900.802 129.474 901.548 129.852 902.094 130.188C902.661 130.524 903.144 130.975 903.543 131.542C903.963 132.088 904.173 132.76 904.173 133.558C904.173 134.377 903.952 135.144 903.511 135.858C903.07 136.551 902.419 137.118 901.558 137.559C900.718 137.979 899.71 138.189 898.534 138.189C897.799 138.189 897.022 138.105 896.203 137.937C895.405 137.748 894.66 137.475 893.967 137.118L894.25 134.629L894.565 134.503C895.153 135.091 895.836 135.553 896.613 135.889C897.411 136.204 898.146 136.362 898.818 136.362C899.7 136.362 900.424 136.131 900.991 135.669C901.558 135.186 901.842 134.608 901.842 133.936C901.842 133.306 901.579 132.802 901.054 132.424C900.55 132.046 899.752 131.605 898.66 131.101C897.757 130.702 897.012 130.335 896.424 129.999C895.857 129.663 895.374 129.222 894.975 128.676C894.576 128.109 894.376 127.426 894.376 126.628C894.376 125.788 894.597 125.032 895.038 124.36C895.5 123.688 896.14 123.153 896.959 122.754C897.799 122.355 898.776 122.155 899.889 122.155ZM907.551 135.228C907.971 135.228 908.307 135.354 908.559 135.606C908.811 135.858 908.937 136.204 908.937 136.645C908.937 137.107 908.801 137.475 908.528 137.748C908.276 138.021 907.919 138.158 907.457 138.158C907.016 138.158 906.669 138.032 906.417 137.779C906.186 137.527 906.071 137.17 906.071 136.708C906.071 136.267 906.197 135.91 906.449 135.637C906.722 135.364 907.089 135.228 907.551 135.228Z" fill="white"/>
    <rect width="94" height="43" transform="translate(521.005 174.99)" fill="#BB012A"/>
    <path d="M542.155 191.862C543.135 191.862 544.017 192.044 544.801 192.408L544.395 194.116L544.213 194.144C543.755 193.883 543.345 193.696 542.981 193.584C542.626 193.463 542.243 193.402 541.833 193.402C541.002 193.402 540.395 193.649 540.013 194.144C539.63 194.639 539.439 195.451 539.439 196.58C539.439 197.327 539.518 197.919 539.677 198.358C539.845 198.797 540.101 199.119 540.447 199.324C540.792 199.52 541.249 199.618 541.819 199.618C542.015 199.618 542.197 199.604 542.365 199.576C542.542 199.548 542.757 199.497 543.009 199.422L543.037 198.652L543.009 197.224L544.759 197.098L544.717 198.358L544.759 200.556C543.639 200.929 542.607 201.116 541.665 201.116C540.265 201.116 539.21 200.733 538.501 199.968C537.801 199.203 537.451 198.106 537.451 196.678C537.451 195.119 537.857 193.929 538.669 193.108C539.49 192.277 540.652 191.862 542.155 191.862ZM551.101 197.966L547.321 197.994C547.405 199.161 547.998 199.744 549.099 199.744C549.678 199.744 550.322 199.581 551.031 199.254L551.185 199.352L550.905 200.738C550.196 200.999 549.528 201.13 548.903 201.13C547.876 201.13 547.069 200.831 546.481 200.234C545.902 199.637 545.613 198.811 545.613 197.756C545.613 196.711 545.898 195.885 546.467 195.278C547.036 194.662 547.806 194.354 548.777 194.354C549.608 194.354 550.247 194.583 550.695 195.04C551.152 195.488 551.381 196.118 551.381 196.93C551.381 197.145 551.358 197.415 551.311 197.742L551.101 197.966ZM549.757 196.72C549.757 196.347 549.673 196.067 549.505 195.88C549.337 195.684 549.09 195.586 548.763 195.586C548.399 195.586 548.096 195.707 547.853 195.95C547.61 196.183 547.447 196.524 547.363 196.972L549.729 196.916L549.757 196.72ZM555.297 199.618C555.595 199.618 555.908 199.539 556.235 199.38L556.389 199.52L556.207 200.626C555.731 200.869 555.245 201.018 554.751 201.074C553.491 200.943 552.861 200.327 552.861 199.226L552.931 198.064L552.917 195.656H552.049L551.979 195.558L552.077 194.536H552.903V193.458L554.597 192.912L554.723 193.024L554.681 194.536H556.347L556.403 194.634L556.319 195.656H554.653L554.569 198.792C554.569 199.091 554.625 199.305 554.737 199.436C554.849 199.557 555.035 199.618 555.297 199.618ZM561.698 194.368C562.333 194.368 562.93 194.475 563.49 194.69L563.238 196.062L563.014 196.132C562.743 195.955 562.473 195.819 562.202 195.726C561.931 195.633 561.693 195.586 561.488 195.586C561.264 195.586 561.087 195.647 560.956 195.768C560.825 195.88 560.76 196.02 560.76 196.188C560.76 196.384 560.844 196.543 561.012 196.664C561.189 196.785 561.465 196.921 561.838 197.07C562.211 197.219 562.519 197.364 562.762 197.504C563.005 197.644 563.21 197.84 563.378 198.092C563.555 198.335 563.644 198.638 563.644 199.002C563.644 199.375 563.546 199.725 563.35 200.052C563.163 200.369 562.874 200.631 562.482 200.836C562.09 201.032 561.609 201.13 561.04 201.13C560.368 201.13 559.673 200.99 558.954 200.71L559.164 199.254L559.346 199.142C559.635 199.385 559.957 199.581 560.312 199.73C560.667 199.87 560.979 199.94 561.25 199.94C561.502 199.94 561.698 199.879 561.838 199.758C561.978 199.627 562.048 199.473 562.048 199.296C562.048 199.1 561.959 198.941 561.782 198.82C561.614 198.699 561.343 198.563 560.97 198.414C560.587 198.246 560.275 198.097 560.032 197.966C559.789 197.826 559.579 197.63 559.402 197.378C559.234 197.126 559.15 196.813 559.15 196.44C559.15 195.833 559.379 195.339 559.836 194.956C560.293 194.564 560.914 194.368 561.698 194.368ZM567.519 199.618C567.818 199.618 568.131 199.539 568.457 199.38L568.611 199.52L568.429 200.626C567.953 200.869 567.468 201.018 566.973 201.074C565.713 200.943 565.083 200.327 565.083 199.226L565.153 198.064L565.139 195.656H564.271L564.201 195.558L564.299 194.536H565.125V193.458L566.819 192.912L566.945 193.024L566.903 194.536H568.569L568.625 194.634L568.541 195.656H566.875L566.791 198.792C566.791 199.091 566.847 199.305 566.959 199.436C567.071 199.557 567.258 199.618 567.519 199.618ZM572.18 194.354C572.898 194.354 573.458 194.517 573.86 194.844C574.27 195.161 574.476 195.609 574.476 196.188C574.476 196.356 574.448 196.888 574.392 197.784C574.382 198.045 574.368 198.316 574.35 198.596C574.331 198.867 574.322 199.1 574.322 199.296C574.322 199.455 574.345 199.567 574.392 199.632C574.438 199.688 574.522 199.716 574.644 199.716C574.737 199.716 574.858 199.697 575.008 199.66L575.148 199.772L574.98 200.752C574.681 200.948 574.34 201.065 573.958 201.102C573.678 201.074 573.444 200.976 573.258 200.808C573.071 200.631 572.945 200.388 572.88 200.08H572.782C572.315 200.575 571.834 200.92 571.34 201.116C570.668 201.107 570.14 200.929 569.758 200.584C569.375 200.239 569.184 199.767 569.184 199.17C569.184 198.703 569.3 198.339 569.534 198.078C569.776 197.807 570.14 197.625 570.626 197.532L572.768 197.126V196.552C572.768 195.945 572.469 195.642 571.872 195.642C571.582 195.642 571.274 195.707 570.948 195.838C570.63 195.969 570.271 196.174 569.87 196.454L569.73 196.37L569.52 195.138C569.921 194.886 570.35 194.695 570.808 194.564C571.265 194.424 571.722 194.354 572.18 194.354ZM571.27 198.386C571.12 198.423 571.008 198.489 570.934 198.582C570.868 198.666 570.836 198.797 570.836 198.974C570.836 199.217 570.901 199.408 571.032 199.548C571.162 199.679 571.344 199.744 571.578 199.744C571.942 199.744 572.324 199.529 572.726 199.1L572.754 198.064L571.27 198.386ZM579.874 194.466C579.958 194.466 580.075 194.475 580.224 194.494V196.216L580.028 196.286C579.869 196.221 579.697 196.188 579.51 196.188C578.969 196.188 578.479 196.538 578.04 197.238V198.12L578.138 200.99H576.276L576.388 198.302L576.304 194.606L578.068 194.452L578.054 195.726H578.166C578.623 194.886 579.193 194.466 579.874 194.466ZM583.83 199.618C584.128 199.618 584.441 199.539 584.768 199.38L584.922 199.52L584.74 200.626C584.264 200.869 583.778 201.018 583.284 201.074C582.024 200.943 581.394 200.327 581.394 199.226L581.464 198.064L581.45 195.656H580.582L580.512 195.558L580.61 194.536H581.436V193.458L583.13 192.912L583.256 193.024L583.214 194.536H584.88L584.936 194.634L584.852 195.656H583.186L583.102 198.792C583.102 199.091 583.158 199.305 583.27 199.436C583.382 199.557 583.568 199.618 583.83 199.618ZM590.873 197.966L587.093 197.994C587.177 199.161 587.769 199.744 588.871 199.744C589.449 199.744 590.093 199.581 590.803 199.254L590.957 199.352L590.677 200.738C589.967 200.999 589.3 201.13 588.675 201.13C587.648 201.13 586.841 200.831 586.253 200.234C585.674 199.637 585.385 198.811 585.385 197.756C585.385 196.711 585.669 195.885 586.239 195.278C586.808 194.662 587.578 194.354 588.549 194.354C589.379 194.354 590.019 194.583 590.467 195.04C590.924 195.488 591.153 196.118 591.153 196.93C591.153 197.145 591.129 197.415 591.083 197.742L590.873 197.966ZM589.529 196.72C589.529 196.347 589.445 196.067 589.277 195.88C589.109 195.684 588.861 195.586 588.535 195.586C588.171 195.586 587.867 195.707 587.625 195.95C587.382 196.183 587.219 196.524 587.135 196.972L589.501 196.916L589.529 196.72ZM597.868 198.12L597.91 199.296C597.91 199.455 597.929 199.567 597.966 199.632C598.013 199.688 598.092 199.716 598.204 199.716C598.307 199.716 598.433 199.697 598.582 199.66L598.708 199.772L598.554 200.752C598.237 200.948 597.891 201.065 597.518 201.102C597.229 201.074 596.986 200.976 596.79 200.808C596.594 200.64 596.459 200.411 596.384 200.122H596.272C595.815 200.542 595.348 200.864 594.872 201.088C593.957 201.088 593.248 200.799 592.744 200.22C592.24 199.632 591.988 198.82 591.988 197.784C591.988 196.683 592.277 195.838 592.856 195.25C593.435 194.662 594.237 194.368 595.264 194.368C595.535 194.368 595.833 194.396 596.16 194.452L596.132 191.302L597.98 191.162L597.868 198.12ZM595.138 195.628C594.205 195.628 593.738 196.221 593.738 197.406C593.738 198.143 593.85 198.699 594.074 199.072C594.298 199.445 594.625 199.632 595.054 199.632C595.465 199.632 595.843 199.441 596.188 199.058L596.216 198.288L596.174 195.88C595.81 195.712 595.465 195.628 595.138 195.628Z" fill="white"/>
    <a href="https://www.figma.com/file/Z6VV6wXXp5kbnhsthlWTRk/Aceboost-(Copy)?type=design&#38;node-id=27-2239&#38;mode=design">
        <rect fill="black" fill-opacity="0" x="0.0537109" y="2.1" width="61.8874" height="16.8"/>
    </a>
</svg>
